<svg xmlns="http://www.w3.org/2000/svg" width="595.2756" height="184.252" viewBox="0 0 595.2756 184.252"><g data-name="Vrstva 1"><path fill="#fff" fill-rule="evenodd" d="M595.276 0H0v184.252h595.276Z"/><path fill="#e6e7e8" fill-rule="evenodd" d="M0 0h595.276v184.252H185.048c8.392-16.473 13.173-35.405 13.173-55.547 0-63.589-47.602-115.157-106.3-115.157H0Z"/><path fill="#231f20" fill-rule="evenodd" d="m67.676 110.969 29.493-21.962 29.7 21.962c-.822 3.543-7.992 10.77-10.69 13.03-3.34 2.795-10.95 6.705-16.997 6.705h-3.819c-12.047 0-23.896-11.22-27.687-19.735m-4.003-8.996-1.904-8.02.198-.01L97.308 67.81 132.7 93.938l-1.709 7.858-.228.133-33.517-24.91Zm-2.68-19.553c0-21.58 15.083-44.452 36.28-44.452 12.167 0 20.84 7.206 26.105 14.233 3.174 4.235 5.01 7.846 7.035 13.252.902 2.409 1.567 5.297 2.107 8.04.537 2.724.467 6.487 1.033 8.927L97.308 55.548Zm-5.156 1.533v.383c0 26.66 16.474 51.54 42.772 51.54h.573c11.236 0 22.916-9.163 27.857-15.732 5.302-7.048 11.479-20.118 11.479-32.36v-6.897c0-11.703-6-25.296-11.231-31.842-3.58-4.478-6.391-7.21-11.113-10.5-2.967-2.066-11.117-5.559-16.037-5.559h-5.729c-5.74 0-12.825 3.56-16.485 5.876-4.59 2.906-8.125 6.744-11.34 11.038-5.815 7.762-10.746 20.492-10.746 34.053m72.56 68.018c.219.415.333.958.955.958h4.774c.445 0 .954-.51.954-.958v-.191c0-.447-.509-.958-.954-.958h-4.774c-.618 0-.702.67-.955 1.15m7.829-.384c0 .646.338 1.341.955 1.341h4.774c.445 0 .954-.51.954-.958v-.191c0-.447-.51-.958-.954-.958h-4.774c-.396 0-.955.56-.955.766M51.254 168.45H54.5v-13.988h-3.246Zm97.002 0h3.246v-11.114h7.83c2.763 0 4.2 1.584 4.2 4.407v6.706h3.055v-8.43c0-3.87-3.71-5.557-7.829-5.557h-10.502Zm-68.169 0h3.055v-11.114H94.6c.668 0 3.019 3.329-1.71 3.266-2.417-.032-4.847-.008-7.265-.008v.574c0 .707 5.053 3.994 5.895 4.623 3.5 2.613 2.187 2.658 8.044 2.658l.12-.172-7.376-5.193c3.563 0 6.874-.48 6.874-4.023 0-3.133-2.41-4.599-5.538-4.599H80.087Zm-22.341-11.689c0 .442.133.575.573.575h7.256v10.538c0 .442.133.575.573.575h2.673v-11.113h7.83v-2.874H57.745Zm-29.979 4.024v1.724c0 2.937 3.87 5.94 7.065 5.94H46.48v-2.874H35.405c-2.061 0-4.2-1.427-4.2-3.449v-.383c0-2.777 1.668-4.407 4.391-4.407H46.48v-2.299c0-.442-.133-.575-.573-.575h-8.02c-5.04 0-10.12 1.604-10.12 6.323m99.485 7.665h16.803v-2.683h-13.557V162.7h12.03v-2.107c0-.442-.133-.575-.573-.575h-11.457v-2.683h13.557v-2.874h-16.804Zm-21.196-7.282c0-1.993 1.833-4.023 3.82-4.023h6.11c1.982 0 4.01 1.882 4.01 3.448v1.725c0 2.68-3.182 3.64-6.11 3.64h-1.72c-3.374 0-6.11-.907-6.11-4.215Zm-3.437-.958v2.3c0 3.489 4.063 6.322 7.829 6.322h5.156c4.32 0 7.829-2.947 7.829-7.28 0-4.1-3.33-7.281-7.257-7.281h-6.492c-3.036 0-7.065 3.265-7.065 5.94"/><path fill="#ed1c24" d="m242.444 73.071 5.722 1.82c-.879 3.21-2.337 5.591-4.38 7.152-2.037 1.553-4.633 2.333-7.774 2.333q-5.826-.002-9.578-3.996-3.753-4.005-3.754-10.936c0-4.893 1.26-8.69 3.774-11.4q3.769-4.056 9.92-4.058c3.576 0 6.485 1.06 8.72 3.189 1.335 1.252 2.33 3.058 2.997 5.413l-5.852 1.403q-.51-2.29-2.167-3.614c-1.096-.883-2.431-1.32-3.999-1.32-2.166 0-3.93.78-5.28 2.347q-2.023 2.34-2.023 7.596c0 3.716.661 6.364 1.996 7.938q1.995 2.369 5.185 2.368 2.36.002 4.053-1.506c1.132-1 1.942-2.58 2.44-4.729m10.955 10.806V54.725h5.906v24.197h14.689v4.955Zm45.986-29.392h5.893v18.607c0 2.43-.218 4.304-.64 5.611-.573 1.711-1.608 3.087-3.114 4.12-1.505 1.04-3.488 1.553-5.948 1.553-2.888 0-5.109-.807-6.67-2.436-1.552-1.622-2.343-4.003-2.35-7.144l5.567-.644q.102 2.526.735 3.573c.64 1.054 1.615 1.58 2.916 1.58q1.974.002 2.793-1.136.819-1.129.818-4.7Zm12.14 0h5.907v15.917c0 2.526.075 4.168.218 4.914.252 1.204.859 2.17 1.805 2.895q1.431 1.097 3.904 1.095 2.517.001 3.795-1.034c.852-.684 1.363-1.533 1.533-2.532.177-1.006.259-2.669.259-4.995v-16.26h5.906v15.438c0 3.532-.156 6.022-.476 7.48s-.906 2.683-1.765 3.689c-.858.999-2.01 1.8-3.44 2.395q-2.158.891-5.635.89-4.19.002-6.356-.973-2.164-.975-3.42-2.525-1.257-1.551-1.655-3.257-.582-2.523-.58-7.46Zm29.616 29.392V54.485h5.75l11.977 19.627V54.485h5.491v29.392h-5.934l-11.793-19.168v19.168Zm29.281 0V54.485h5.907v29.392Zm10.342-14.515q-.002-4.494 1.336-7.54a14 14 0 0 1 2.725-4.031q1.727-1.778 3.78-2.642c1.827-.78 3.925-1.163 6.31-1.163 4.312 0 7.76 1.34 10.348 4.03 2.589 2.683 3.884 6.42 3.884 11.203 0 4.749-1.288 8.458-3.856 11.14q-3.854 4.016-10.295 4.017-6.53-.002-10.382-3.996-3.852-4.005-3.85-11.018m6.084-.198c0 3.326.77 5.85 2.296 7.569q2.298 2.574 5.832 2.573c2.35 0 4.285-.85 5.798-2.56q2.26-2.554 2.261-7.664-.001-5.049-2.2-7.541-2.21-2.484-5.86-2.484-3.656.001-5.892 2.518c-1.486 1.677-2.235 4.202-2.235 7.589m26.924 14.713V54.485h12.44q4.69.002 6.814.794 2.127.79 3.406 2.813c.851 1.355 1.274 2.894 1.274 4.633 0 2.203-.647 4.03-1.935 5.467-1.288 1.43-3.223 2.34-5.79 2.71q1.92 1.128 3.167 2.47 1.245 1.344 3.359 4.77l3.577 5.735h-7.065l-4.272-6.399q-2.278-3.426-3.113-4.318c-.559-.595-1.152-.999-1.779-1.225-.626-.219-1.614-.328-2.977-.328h-1.192v12.27Zm5.914-16.965h4.367q4.252.002 5.314-.355a3.2 3.2 0 0 0 1.655-1.246c.396-.588.6-1.32.6-2.203 0-.993-.266-1.786-.79-2.395q-.787-.913-2.228-1.157-.715-.094-4.312-.096h-4.606Zm61.336 16.965h-6.431l-2.555-6.68h-11.698l-2.412 6.68h-6.267l11.397-29.392h6.248Zm-10.88-11.627-4.034-10.908-3.95 10.908Zm13.973-17.765h5.906v15.917c0 2.526.076 4.168.219 4.914.252 1.204.858 2.17 1.805 2.895q1.43 1.097 3.904 1.095 2.515.001 3.795-1.034c.851-.684 1.362-1.533 1.532-2.532.178-1.006.26-2.669.26-4.995v-16.26h5.906v15.438c0 3.532-.157 6.022-.477 7.48s-.906 2.683-1.764 3.689c-.859.999-2.01 1.8-3.44 2.395-1.438.595-3.319.89-5.635.89q-4.19.002-6.356-.973c-1.445-.65-2.582-1.491-3.42-2.525q-1.257-1.551-1.656-3.257-.58-2.523-.579-7.46Zm36.142 29.392V59.46h-8.68v-4.975h23.253v4.975h-8.66v24.417Zm17.189-14.515c0-2.997.442-5.508 1.335-7.54a14 14 0 0 1 2.725-4.031q1.728-1.778 3.781-2.642c1.826-.78 3.925-1.163 6.309-1.163 4.312 0 7.76 1.34 10.348 4.03 2.59 2.683 3.884 6.42 3.884 11.203 0 4.749-1.288 8.458-3.856 11.14q-3.855 4.016-10.294 4.017-6.53-.002-10.383-3.996-3.852-4.005-3.85-11.018m6.084-.198c0 3.326.77 5.85 2.296 7.569q2.298 2.574 5.831 2.573c2.35 0 4.286-.85 5.798-2.56q2.26-2.554 2.262-7.664c0-3.367-.736-5.878-2.2-7.541q-2.21-2.484-5.86-2.484c-2.439 0-4.4.841-5.893 2.518-1.485 1.677-2.234 4.202-2.234 7.589m-319.794 31.191h11.697q3.476-.002 5.185.294a7.5 7.5 0 0 1 3.052 1.212c.9.615 1.642 1.43 2.241 2.456.6 1.02.9 2.17.9 3.435a6.9 6.9 0 0 1-1.104 3.791 6.9 6.9 0 0 1-3.005 2.587c1.779.52 3.155 1.41 4.108 2.662q1.44 1.889 1.438 4.435c0 1.334-.306 2.634-.927 3.9-.62 1.26-1.464 2.272-2.534 3.025q-1.604 1.13-3.965 1.396c-.98.103-3.359.17-7.126.198h-9.96Zm5.913 4.893v6.795h3.87q3.453 0 4.292-.102 1.514-.175 2.384-1.048c.58-.581.865-1.348.865-2.299q.002-1.365-.742-2.217-.756-.852-2.228-1.026-.88-.104-5.048-.103Zm0 11.688v7.856h5.464c2.132 0 3.481-.055 4.054-.178.878-.157 1.594-.554 2.145-1.17.552-.623.832-1.458.832-2.498 0-.883-.218-1.629-.64-2.245-.43-.616-1.043-1.067-1.847-1.348-.804-.28-2.555-.417-5.24-.417Zm22.394-1.704q-.001-4.494 1.335-7.541a14 14 0 0 1 2.725-4.03q1.728-1.78 3.781-2.642c1.826-.78 3.925-1.164 6.31-1.164q6.466-.001 10.347 4.031 3.884 4.026 3.884 11.202c0 4.75-1.288 8.458-3.856 11.14q-3.855 4.017-10.294 4.018-6.53-.001-10.383-3.996-3.851-4.006-3.85-11.018m6.084-.199c0 3.326.77 5.851 2.296 7.57 1.533 1.717 3.474 2.572 5.831 2.572 2.35 0 4.286-.848 5.798-2.56q2.26-2.553 2.262-7.664-.002-5.049-2.2-7.54-2.21-2.485-5.86-2.485c-2.439 0-4.4.842-5.893 2.518-1.485 1.677-2.234 4.202-2.234 7.59m25.412 5.154 5.75-.569q.51 2.914 2.105 4.277c1.055.904 2.48 1.362 4.278 1.362 1.9 0 3.338-.404 4.299-1.218q1.45-1.211 1.451-2.833 0-1.046-.613-1.772-.602-.74-2.126-1.273c-.688-.246-2.268-.67-4.728-1.287q-4.751-1.182-6.663-2.908-2.697-2.423-2.697-5.912c0-1.5.422-2.895 1.267-4.202q1.269-1.95 3.651-2.977c1.595-.678 3.509-1.02 5.757-1.02 3.68 0 6.438.808 8.298 2.423 1.853 1.622 2.827 3.777 2.923 6.48l-5.907.26q-.38-2.27-1.628-3.257-1.247-.994-3.74-.992c-1.717 0-3.066.349-4.034 1.06q-.94.68-.94 1.82 0 1.048.88 1.787 1.115.946 5.429 1.964 4.312 1.026 6.377 2.114c1.376.733 2.452 1.725 3.236 2.99q1.165 1.9 1.165 4.681c0 1.684-.463 3.265-1.397 4.73q-1.398 2.207-3.951 3.277-2.557 1.076-6.37 1.075-5.55.002-8.523-2.574c-1.983-1.717-3.168-4.222-3.55-7.506m28.838 9.56v-29.392h5.907v13.05l11.936-13.05h7.944l-11.017 11.449 11.616 17.942h-7.643l-8.04-13.796-4.796 4.914v8.882Zm28.246-14.515q-.002-4.494 1.336-7.541a14 14 0 0 1 2.725-4.03q1.727-1.78 3.78-2.642c1.827-.78 3.925-1.164 6.31-1.164q6.467-.001 10.348 4.031 3.885 4.026 3.884 11.202c0 4.75-1.288 8.458-3.857 11.14q-3.853 4.017-10.294 4.018-6.53-.001-10.382-3.996c-2.57-2.67-3.85-6.344-3.85-11.018m6.084-.199c0 3.326.77 5.851 2.296 7.57 1.533 1.717 3.474 2.572 5.832 2.572 2.35 0 4.285-.848 5.797-2.56q2.261-2.553 2.262-7.664-.001-5.049-2.2-7.54-2.21-2.485-5.86-2.485c-2.438 0-4.4.842-5.892 2.518-1.486 1.677-2.235 4.202-2.235 7.59m34.37 14.713-10.457-29.391h6.411l7.399 21.754 7.167-21.754h6.268l-10.478 29.391Zm19.622 0v-29.391h5.906v29.391Zm30.262-10.805 5.723 1.82q-1.317 4.813-4.38 7.151c-2.038 1.554-4.633 2.334-7.774 2.334q-5.826-.001-9.579-3.996c-2.5-2.67-3.754-6.317-3.754-10.936 0-4.893 1.26-8.69 3.775-11.4 2.514-2.704 5.818-4.059 9.92-4.059q5.366-.002 8.72 3.19c1.335 1.252 2.33 3.058 2.997 5.412l-5.852 1.403q-.51-2.289-2.166-3.613c-1.097-.883-2.433-1.32-4-1.32-2.166 0-3.93.78-5.28 2.346q-2.022 2.34-2.023 7.596c0 3.716.66 6.364 1.996 7.938 1.329 1.581 3.06 2.368 5.185 2.368 1.574 0 2.922-.5 4.053-1.505 1.132-1 1.942-2.58 2.44-4.73m10.799 10.805v-29.391h21.692v4.975h-15.786v6.515h14.689v4.947h-14.689v8h16.344v4.954Zm36.605-6.076 5.627-.863c.239 1.095.722 1.93 1.458 2.498.73.568 1.751.856 3.073.856q2.176.002 3.27-.808c.497-.37.743-.876.743-1.499 0-.43-.137-.787-.402-1.067q-.421-.4-1.874-.74-6.785-1.499-8.604-2.743-2.515-1.727-2.514-4.797c0-1.841.722-3.394 2.173-4.647q2.177-1.889 6.745-1.889c2.902 0 5.062.48 6.472 1.424q2.113 1.425 2.909 4.215l-5.287.979c-.225-.828-.654-1.465-1.288-1.903q-.948-.665-2.704-.664-2.217-.001-3.175.623c-.423.294-.633.678-.633 1.143 0 .404.184.74.558 1.02.504.376 2.248.903 5.24 1.587q4.475 1.017 6.253 2.505 1.758 1.509 1.758 4.188c0 1.95-.81 3.634-2.439 5.037q-2.43 2.101-7.201 2.1c-2.889 0-5.171-.588-6.86-1.765-1.684-1.17-2.78-2.772-3.298-4.79m24.71 6.076v-5.632h5.607v5.632Zm16.726 0h-5.607v-21.289h5.205v3.025c.892-1.43 1.696-2.375 2.405-2.826a4.44 4.44 0 0 1 2.425-.685c1.28 0 2.507.356 3.692 1.068l-1.737 4.906q-1.412-.915-2.63-.917c-.79 0-1.45.213-1.996.65-.552.432-.974 1.219-1.287 2.355q-.47 1.706-.47 7.137Zm8.284 0v-5.632h5.607v5.632Zm10.055-10.949c0-1.868.464-3.681 1.377-5.433.92-1.745 2.22-3.087 3.904-4.004 1.682-.923 3.563-1.389 5.64-1.389q4.805 0 7.883 3.142 3.074 3.138 3.073 7.93-.002 4.826-3.1 8.007c-2.071 2.121-4.674 3.175-7.815 3.175-1.948 0-3.794-.438-5.559-1.32q-2.647-1.324-4.026-3.88c-.913-1.705-1.377-3.778-1.377-6.228m5.75.301q-.001 3.17 1.5 4.852 1.493 1.684 3.692 1.684 2.197 0 3.679-1.684c.994-1.122 1.492-2.75 1.492-4.893 0-2.08-.498-3.688-1.492-4.81q-1.482-1.684-3.679-1.684-2.2 0-3.692 1.684c-1.002 1.122-1.5 2.744-1.5 4.851m20.52 10.648v-5.632h5.608v5.632Z"/></g></svg>