<svg xmlns="http://www.w3.org/2000/svg" xml:space="preserve" width="552.76001" height="198.4225"><defs><clipPath id="a"><path d="M0 158.738h442.208V0H0z"/></clipPath></defs><path d="m0 0 7.89-4.587v-31.158H-7.88l.03 31.179zm.062 7.032L-13.814-.912v-40.817h27.627V-.912z" style="fill:#d4272e;fill-opacity:1;fill-rule:nonzero;stroke:none" transform="matrix(1.25 0 0 -1.25 85.477 45.844)"/><path d="m0 0-21.549-12.449v-53.176L16.361-87.5l.089 39.393h15.799l.029-39.451 38.029 21.993v53.146L48.61.031l-.089-67.197 6.018 3.468.029 53.324 9.633-5.602v-46.062L38.177-77.066l-.03 34.918-27.655-.029.031-34.889-25.996 15.028v46.121l9.663 5.484.03-53.234 5.899-3.38z" style="fill:#d4272e;fill-opacity:1;fill-rule:nonzero;stroke:none" transform="matrix(1.25 0 0 -1.25 55.061 54.622)"/><path d="M0 0h-7.91v12.51h-25.106V0h-7.91v32.414h7.91V19.861H-7.91v12.553H0z" style="fill:#d4272e;fill-opacity:1;fill-rule:nonzero;stroke:none" transform="matrix(1.25 0 0 -1.25 222.64 110.785)"/><g clip-path="url(#a)" transform="matrix(1.25 0 0 -1.25 0 198.423)"><path d="M0 0h18.4q2.407 0 3.762 1.269 1.354 1.266 1.74 3.674H-3.654v-24.804h-7.91v32.414h43.076V6.362q0-12.295-11.951-13.542l12.337-12.681h-9.543L9.845-7.309H0z" style="fill:#d4272e;fill-opacity:1;fill-rule:nonzero;stroke:none" transform="translate(195.737 89.972)"/><path d="M0 0h24.246q2.621 0 2.622 2.45 0 2.794-2.622 2.794H5.545v6.879h18.701q2.621 0 2.622 2.772 0 2.386-2.622 2.386H0zm-7.91 24.891h34.263q8.855 0 8.855-8.211 0-3.354-1.44-5.267t-4.149-2.429q2.665-.515 4.127-2.579T35.208.688q0-8.212-8.855-8.211H-7.91z" style="fill:#d4272e;fill-opacity:1;fill-rule:nonzero;stroke:none" transform="translate(240.877 77.634)"/><path d="M0 0h-14.272q-7.222 0-9.373-1.547a6.8 6.8 0 0 1-1.482-1.655 5.3 5.3 0 0 1-.753-1.913H0zm7.91-24.805H0v12.553h-26.396v-12.553h-7.91v16.293q0 3.783 1.076 6.771 1.072 2.987 3.159 5.073 2.084 2.085 5.094 3.181t6.878 1.096H7.91z" style="fill:#d4272e;fill-opacity:1;fill-rule:nonzero;stroke:none" transform="translate(315.893 94.915)"/><path d="M0 0h-14.917v-24.805h-7.91V0h-5.439q-5.138 0-5.567-4.943h-7.437q1.032 12.552 14.273 12.552H0z" style="fill:#d4272e;fill-opacity:1;fill-rule:nonzero;stroke:none" transform="translate(369.328 94.915)"/><path d="M0 0h-14.272q-7.222 0-9.372-1.547a6.8 6.8 0 0 1-1.483-1.655 5.3 5.3 0 0 1-.752-1.913H0zm7.91-24.805H0v12.553h-26.396v-12.553h-7.91v16.293q0 3.783 1.076 6.771 1.073 2.987 3.159 5.073 2.085 2.085 5.094 3.181t6.878 1.096H7.91z" style="fill:#d4272e;fill-opacity:1;fill-rule:nonzero;stroke:none" transform="translate(407.718 94.915)"/><path d="M0 0q0-1.891-1.346-3.042-1.287-1.074-3.218-1.073h-10.163v2.321h10.163q.954 0 1.658.429.8.527.8 1.424t-.82 1.384q-.683.411-1.638.411h-6.281q-1.736 0-2.906.955Q-15.001 3.842-15 5.54q0 1.677 1.249 2.711 1.17.956 2.906.956H-.8V6.886h-10.045q-.663 0-1.132-.371-.467-.37-.467-.994 0-.644.467-.996.47-.35 1.132-.35h6.281q1.93 0 3.218-1.112Q0 1.893 0 0" style="fill:#222;fill-opacity:1;fill-rule:nonzero;stroke:none" transform="translate(236.678 53.621)"/><path d="M0 0h-5.247v-11.001h-2.302V0h-5.265v2.321H0z" style="fill:#222;fill-opacity:1;fill-rule:nonzero;stroke:none" transform="translate(254.602 60.507)"/><path d="m0 0-2.984.02-2.244 3.725h-6.319l1.404 2.302h3.531l-2.322 3.842L-14.941.02h-2.984l7.237 12.034a3.1 3.1 0 0 0 .76.858q.585.449 1.053.449.507 0 1.054-.429a3.1 3.1 0 0 0 .76-.878z" style="fill:#222;fill-opacity:1;fill-rule:nonzero;stroke:none" transform="translate(274.888 49.506)"/><path d="m0 0-7.606-12.23q-.8-1.308-1.444-1.307-.624 0-1.424 1.307L-17.925 0h2.985l5.949-9.89L-2.984 0z" style="fill:#222;fill-opacity:1;fill-rule:nonzero;stroke:none" transform="translate(291.837 62.828)"/><path d="M0 0q0 .839-.975 1.287-.76.332-1.736.332h-7.587v-8.68h7.587q.956 0 1.697.292Q0-6.339 0-5.539q0 .819-1.014 1.248a4.4 4.4 0 0 1-1.697.312h-6.222v2.321h6.222q.975 0 1.736.351Q0-.858 0 0m2.243-5.52q0-.858-.429-1.619Q.527-9.382-3.062-9.382h-9.557V3.94h9.557q3.414 0 4.779-2.127A3.44 3.44 0 0 0 2.243-.02q0-1.658-1.404-2.789Q2.243-3.9 2.243-5.52" style="fill:#222;fill-opacity:1;fill-rule:nonzero;stroke:none" transform="translate(307.636 58.907)"/><path d="m0 0-6.612-8.914v-4.408h-2.302v4.447L-15.701 0h2.984l5.013-6.554L-3.004 0z" style="fill:#222;fill-opacity:1;fill-rule:nonzero;stroke:none" transform="translate(330.749 62.828)"/></g></svg>