<svg xmlns="http://www.w3.org/2000/svg" fill="none" viewBox="0 0 36 35"><g fill="#374151" clip-path="url(#a)"><path d="M31.355 2H4.645A2.65 2.65 0 0 0 2 4.645v26.71A2.65 2.65 0 0 0 4.645 34h26.71A2.65 2.65 0 0 0 34 31.355V4.645A2.65 2.65 0 0 0 31.355 2m.915 29.355a.917.917 0 0 1-.915.915H4.645a.917.917 0 0 1-.915-.915V4.645a.917.917 0 0 1 .915-.915h26.71a.917.917 0 0 1 .915.915z"/><path d="M6.324 9.784a.86.86 0 0 0 .612-.254L9.53 6.936a.865.865 0 1 0-1.223-1.223L5.713 8.307a.865.865 0 0 0 .611 1.477m7.531 6.666 2.594-2.595a.865.865 0 1 0-1.223-1.223l-2.594 2.594a.865.865 0 0 0 1.223 1.223m-7.531 7.173a.86.86 0 0 0 .612-.254l2.594-2.594a.865.865 0 1 0-1.223-1.223l-2.594 2.594a.865.865 0 0 0 .611 1.477m13.838 0a.86.86 0 0 0 .612-.254l2.594-2.594a.865.865 0 1 0-1.223-1.223l-2.594 2.594a.866.866 0 0 0 .611 1.477m-6.919 0a.86.86 0 0 0 .612-.254l2.594-2.594a.865.865 0 1 0-1.223-1.223l-2.594 2.594a.866.866 0 0 0 .611 1.477M8.307 26.47l-2.594 2.594a.865.865 0 1 0 1.223 1.223l2.594-2.594a.865.865 0 1 0-1.223-1.223m13.838 0-2.594 2.594a.866.866 0 1 0 1.223 1.223l2.594-2.594a.865.865 0 0 0-1.223-1.223m-6.919 0-2.594 2.594a.866.866 0 1 0 1.223 1.223l2.594-2.594a.86.86 0 0 0 0-1.223.866.866 0 0 0-1.223 0m13.838-6.92-2.594 2.595a.865.865 0 1 0 1.223 1.223l2.594-2.594a.865.865 0 0 0-1.223-1.223m0 6.919-2.594 2.594a.866.866 0 1 0 1.223 1.223l2.594-2.594a.865.865 0 1 0-1.223-1.223m0-13.838-2.594 2.594a.865.865 0 0 0 1.223 1.223l2.594-2.594a.865.865 0 0 0-1.223-1.223m-8.29 3.818 2.594-2.595a.866.866 0 1 0-1.223-1.223l-2.594 2.594a.864.864 0 0 0 1.223 1.223m-.612-6.665a.86.86 0 0 0 .612-.254l2.594-2.594a.865.865 0 1 0-1.223-1.223l-2.594 2.594a.865.865 0 0 0 .611 1.477m8.902-4.071L26.47 8.307a.866.866 0 0 0 1.223 1.223l2.594-2.594a.864.864 0 1 0-1.223-1.223M13.243 9.784a.86.86 0 0 0 .612-.254l2.594-2.594a.865.865 0 1 0-1.223-1.223l-2.594 2.594a.865.865 0 0 0 .611 1.477m-4.071-.612a.865.865 0 0 0 0 1.223l2.595 2.595a.865.865 0 1 0 1.223-1.223l-2.595-2.595a.864.864 0 0 0-1.223 0m10.125 10.99a.866.866 0 0 0 .612-1.476l-2.595-2.595a.865.865 0 0 0-1.223 1.223l2.595 2.595a.86.86 0 0 0 .611.253m6.919 0a.865.865 0 0 0 .612-1.476l-2.595-2.595a.865.865 0 1 0-1.223 1.223l2.595 2.595a.86.86 0 0 0 .611.253m.612 6.666a.864.864 0 0 0 0-1.223l-2.595-2.595a.866.866 0 1 0-1.223 1.223l2.595 2.595a.864.864 0 0 0 1.223 0M16.091 9.172a.865.865 0 0 0 0 1.223l2.595 2.595a.865.865 0 0 0 1.223-1.223l-2.595-2.595a.865.865 0 0 0-1.223 0m10.737 3.818a.864.864 0 0 0 0-1.223l-2.595-2.595a.865.865 0 1 0-1.223 1.223l2.595 2.595a.866.866 0 0 0 1.223 0M9.172 16.091a.864.864 0 0 0 0 1.223l2.595 2.595a.865.865 0 1 0 1.223-1.223l-2.595-2.595a.866.866 0 0 0-1.223 0m10.737 10.737a.866.866 0 0 0 0-1.223l-2.595-2.595a.865.865 0 1 0-1.223 1.223l2.595 2.595a.864.864 0 0 0 1.223 0m-6.919 0a.866.866 0 0 0 0-1.223l-2.595-2.595a.865.865 0 0 0-1.223 1.223l2.595 2.595a.863.863 0 0 0 1.223 0M6.324 16.703a.86.86 0 0 0 .612-.254l2.594-2.594a.865.865 0 1 0-1.223-1.223l-2.594 2.594a.865.865 0 0 0 .611 1.477"/></g><defs><clipPath id="a"><path fill="#fff" d="M0 0h36v45H0z"/></clipPath></defs></svg>