<svg xmlns="http://www.w3.org/2000/svg" xmlns:xlink="http://www.w3.org/1999/xlink" xml:space="preserve" id="Layer_1" x="0px" y="0px" version="1.1" viewBox="0 0 7459.1 1931.5"><style>.st0{clip-path:url(#SVGID_2_);fill-rule:evenodd;clip-rule:evenodd;fill:#e3000f}</style><defs><path id="SVGID_1_" d="M-9 79.5h7389v1861H-9z"/></defs><clipPath id="SVGID_2_"><use xlink:href="#SVGID_1_" style="overflow:visible"/></clipPath><path d="M1436.8 453.1h-87.9v88h88zm-425.7 921.6-162.4-162.5-162.5 162.5H463.7c-56 0-101.9-45.5-102.5-101.4V664.7c.1-56.3 46.2-102.4 102.5-102.4h222.4l162.5 162.5 162.5-162.5h162.5v162.5H1336v547.4c0 56.4-46.1 102.5-102.5 102.5zm246.9-1004h-134.3v134.2H1258z" class="st0"/><path d="M1011.1 887.3v324.9h162.5V724.8h-162.5L848.6 887.3 686.1 724.8H523.7v487.4h162.4V887.3l162.5 162.5z" style="clip-path:url(#SVGID_2_);fill-rule:evenodd;clip-rule:evenodd;fill:#fff"/><path d="M1243.5 562.8c46.5 4.5 84.1 40.4 91.3 86.1v15.3h-101.4V562.8z" class="st0"/><path d="M1583.7 876.4H1711c-.2 22.9 4.1 37.7 13 44.3 6.4 4.4 14.5 6.9 24.5 7.7q15 1.2 94.5 1.8c55.6-.2 88.9-.6 100.1-1.2 11.1-.6 20-2.3 26.4-5.3 9.7-4.3 14.6-15.9 14.6-34.8 0-13.7-3.5-22.9-10.3-27.5-6.9-4.6-20.8-7.1-41.9-7.6-16.2 0-50.6-1.4-103.1-4-53.7-2.8-88.7-4.3-104.9-4.7-31.6-1.2-55.9-4.4-72.8-9.7s-30.2-13.9-39.7-25.8c-16.2-19.9-24.3-52.9-24.3-99.3 0-52 9.3-88.7 27.8-110.1 14.1-16.6 35.8-27.3 65.1-31.9 29.4-4.6 88.8-6.9 178.6-6.9 63.5 0 108 2 133.7 5.8 39.6 5.9 66.8 17.6 81.6 35.2 14.8 17.7 22.1 47.5 22.1 89.3v21.6h-127.5c-.4-12.9-1.4-21.6-3-26.4-1.5-4.7-4.6-8.5-9.3-11.5-5.7-3.6-15.8-5.9-30.1-6.9-14.2-1-44.7-1.5-91.1-1.5-55.8 0-89.9 1.8-102.1 5.5-12.2 3.8-18.3 14-18.3 31 0 16.1 6.2 26 18.3 29.7 10.1 2.9 56.6 5.6 139.3 8.4 69.7 2.2 116.3 4.8 139.9 7.9 23.5 3 42.2 8.7 56.1 17.4 15.8 10.1 27 23.9 33.5 41.7 6.6 17.6 9.8 42.9 9.8 76.1 0 43.4-5.5 75.6-16.4 96.8-8.3 15.5-19.6 27.2-34.3 34.8s-35.3 12.8-61.8 15.5c-28.5 2.6-81.5 4-159.1 4-64.9 0-112.9-1.8-143.9-5.4q-46.5-5.4-69.9-19.2c-16.2-10-27.4-23-33.7-39.2-6.2-16.2-9.3-40.9-9.3-74zm548.6-308h522.6v117.4h-192.4v343.1h-137.9V685.8h-192.3zm879.3 281.7-83.2-174.7h-26.2L2819 850.1zm83.1 178.8-37-78h-285.4l-37 78H2585l229-460.5h204.2l225.8 460.5zm59.8-460.5H3299l157.5 345.2h24.6L3637 568.4h143.6L3570 1028.9h-202.1zm648 0h477.8v108.4H3932v66.3h330.9v100.8H3932v74.6h350.9v110.4h-480.4zm646.6 350.1H4635c38.4-.2 61.3-.6 68.4-1 7.2-.5 13.2-1.7 18-3.7 11.3-4.8 17.1-16.6 17.1-35.3q0-29.1-19.5-34.2c-4.6-1.4-32.7-2.2-84-2.4h-185.9zm0-168.5h185.3c40.6 0 64.8-1.7 72.5-5.1 10.3-4.3 15.4-15.3 15.4-33q0-27.3-18.6-32.7c-4.9-1.4-28-2.2-69.4-2.4H4449V750zm-124.9 278.9V568.4h309.9c65.9.2 105.1.8 117.5 1.7 28.3 1.7 49 7.1 62.3 16.1 12.8 8.6 22.1 20.8 27.6 36.6 5.6 15.9 8.4 37.6 8.4 65.4 0 33-4.2 57.3-12.7 72.8s-23.6 26.6-45.3 33.4c19.1 3.6 33.3 8.7 42.6 15.5 21 15.1 31.6 46.7 31.6 95.2 0 37.5-5.5 65.4-16.4 83.3-7.4 12.2-17.4 21.1-30.1 26.8-12.6 5.8-30.4 9.6-53.4 11.3-14.9 1.2-58.7 2-131.1 2.4zm587.7-460.5h230.5l226.2 343.9h13.6l-3.2-343.9h133.8v460.5h-228.7l-227-343.8h-14.3l2.9 343.8h-133.8zm661.1 0h137.9v460.5H5573zm198.6 0h230.5l226.2 343.9h13.6l-3.2-343.9h133.8v460.5h-228.7l-227.1-343.8h-14.2l2.9 343.8h-133.8zm617.5 0h173l140.6 184.7 134.8-184.7h171.4l-236.2 297.7v162.8h-136V866.1z" style="fill:#e3000f;clip-path:url(#SVGID_2_)"/><path d="M2885.1 1226.2h87.2l177.4 271.7 174.4-271.7h87.6v320.5h-43.6v-280.6h-18.2l-182.4 280.6h-35.3l-184.3-280.6h-19.2v280.6h-43.6zm1123.3 215.3-101.7-177.8h-17.5L3786 1441.5zm59.6 105.2-38.7-67.7h-264.4l-39 67.7h-49.4l185.4-320.4h69.7l184.8 320.4zm313.1-320.5h43.6v283h257.9v37.5h-301.5zm623.3-111.2 33.8 33.5-69.5 59.4-23.3-22.6zm-51.8 111.2h43.6v320.4h-43.6zm337.6 0h43.6v137.9h56.8l211.9-137.9h76.4l-243.1 156.4 255.7 164.1h-77l-223.9-145.1h-56.8v145.1h-43.6z" style="clip-path:url(#SVGID_2_)"/><path d="M-21 1931.5h-24m45 21v24m-21-1888h-24m45-21v-24m7392 45h24m-45-21v-24m21 1888h24m-45 21v24" style="fill:none;stroke:#000;stroke-width:.3;stroke-miterlimit:10"/></svg>