<svg width="100%" height="100%" viewBox="0 0 60 24" fill="none" xmlns="http://www.w3.org/2000/svg">
<path d="M9.432 7.225C8.091 7.225 6.709 8.161 6.664 9.999C6.709 11.787 8.09 12.723 9.432 12.723C10.774 12.723 12.155 11.787 12.2 9.999C12.2 9.982 12.2 9.965 12.2 9.948C12.155 8.16 10.774 7.225 9.432 7.225ZM9.432 10.723C9.256 10.723 8.681 10.667 8.663 9.999C8.682 9.28 9.256 9.225 9.432 9.225C9.605 9.225 10.169 9.28 10.2 9.974C10.169 10.669 9.606 10.723 9.432 10.723Z" fill="#22D3EE"/>
<path d="M56.664 4.121C56.721 2.776 55.537 2.187 54.753 1.797C54.542 1.692 54.33 1.589 54.084 1.433C53.411 1.063 52.585 1.104 51.931 1.534C47.902 4.183 43.697 3.875 43.573 3.872L16.345 3.876C16.306 3.878 12.099 4.184 8.071 1.535C7.416 1.103 6.591 1.063 5.85 1.473C5.746 1.541 5.593 1.617 5.423 1.702C4.59 2.128 3.208 2.833 3.336 4.138V12.208C3.336 12.659 3.475 13.085 3.738 13.438C4.19 14.046 5.394 15.41 7.666 16.516V17.485C7.666 18.816 8.524 19.972 9.803 20.363C11.535 20.89 13.48 21.159 15.649 21.159H15.675C16.858 21.08 20.455 21.119 24.621 21.164C28.424 21.205 31.984 21.236 35.179 21.236C43.016 21.236 48.655 21.047 50.268 20.34C51.507 19.93 52.334 18.791 52.334 17.485V16.516C54.606 15.409 55.809 14.046 56.261 13.439C56.525 13.085 56.664 12.659 56.664 12.208V4.121ZM50.334 17.485C50.334 17.93 50.045 18.318 49.614 18.45C49.563 18.465 49.514 18.484 49.466 18.508C47.621 19.413 32.674 19.252 24.641 19.164C20.261 19.116 16.8 19.08 15.607 19.161C13.692 19.161 11.935 18.922 10.384 18.45C9.953 18.318 9.664 17.93 9.664 17.485V17.312C11.262 17.818 13.222 18.161 15.606 18.161H44.39C46.775 18.161 48.734 17.818 50.332 17.312V17.485H50.334ZM54.656 12.245C53.973 13.164 51.215 16.161 44.391 16.161H15.608C8.784 16.161 6.026 13.164 5.336 12.208V4.09C5.522 3.899 6.082 3.612 6.333 3.484C6.579 3.359 6.796 3.245 6.971 3.206C11.601 6.251 16.315 5.886 16.428 5.872L43.487 5.868C43.686 5.889 48.399 6.25 53.059 3.149C53.301 3.306 53.58 3.448 53.861 3.587C54.136 3.725 54.597 3.953 54.664 4.079L54.656 12.245Z" fill="#22D3EE"/>
<path d="M47.8 9.948C47.8 9.965 47.8 9.982 47.8 9.999C47.845 11.787 49.227 12.724 50.568 12.723C51.91 12.723 53.291 11.787 53.336 9.949C53.247 6.375 47.89 6.372 47.8 9.948ZM50.568 10.722C50.394 10.722 49.831 10.668 49.8 9.973C49.831 9.279 50.394 9.224 50.568 9.224C50.744 9.224 51.319 9.28 51.338 9.948C51.32 10.667 50.744 10.722 50.568 10.722Z" fill="#22D3EE"/>
<path d="M43.272 7.708H16.728C15.893 7.708 15.164 8.183 14.827 8.946C14.489 9.709 14.628 10.567 15.19 11.185L17.424 13.642C17.817 14.076 18.378 14.324 18.963 14.324H41.037C41.622 14.324 42.183 14.076 42.575 13.643L44.81 11.185C45.372 10.567 45.511 9.708 45.173 8.946C44.836 8.182 44.107 7.708 43.272 7.708ZM41.037 12.324L18.904 12.298L16.669 9.84L15.929 10.513L16.727 9.708H43.271L43.33 9.84L41.037 12.324Z" fill="#22D3EE"/>
</svg>
