<svg width="512" height="512" viewBox="0 0 512 512" fill="none" xmlns="http://www.w3.org/2000/svg">
<path d="M469.71 234.6C462.38 224.87 435.15 218.17 423.63 200.66C412.11 183.15 402.68 145.23 373.36 130.66C344.04 116.09 288 112 256 112C224 112 168 116 138.64 130.63C109.28 145.26 99.89 183.15 88.37 200.63C76.85 218.11 49.62 224.87 42.29 234.6C34.96 244.33 29.8 305.84 32.94 336C36.08 366.16 41.94 384 41.94 384H127.94C142.02 384 146.6 378.71 175.4 376C207 373 238 372 256 372C274 372 306 373 337.58 376C366.38 378.73 371.11 384 385.04 384H470.04C470.04 384 475.9 366.16 479.04 336C482.18 305.84 477 244.33 469.71 234.6ZM400 384H456V400H400V384ZM56 384H112V400H56V384Z" stroke="#374151" stroke-width="32" stroke-linecap="round" stroke-linejoin="round"/>
<path d="M364.47 309.16C358.56 302.33 339.3 296.63 313.8 292.81C288.3 288.99 279 288 256.2 288C233.4 288 223.03 289.64 198.59 292.81C174.15 295.98 155.8 301.62 147.93 309.16C136.12 320.6 153.42 333.44 167 335C180.16 336.5 206.47 335.95 256.31 335.95C306.15 335.95 332.46 336.5 345.62 335C359.18 333.35 375.24 321.4 364.47 309.16ZM431.57 243.05C431.514 242.256 431.166 241.51 430.594 240.957C430.022 240.403 429.266 240.08 428.47 240.05C416.66 239.63 404.67 240.47 383.4 246.74C372.548 249.908 362.358 255.01 353.32 261.8C351.04 263.58 351.85 268.39 354.71 268.9C372.242 270.956 389.878 271.991 407.53 272C418.12 272 429.05 269 431.08 259.56C432.115 254.117 432.28 248.545 431.57 243.05ZM80.43 243.05C80.4861 242.256 80.8336 241.51 81.4057 240.957C81.9779 240.403 82.7344 240.08 83.53 240.05C95.34 239.63 107.33 240.47 128.6 246.74C139.452 249.908 149.642 255.01 158.68 261.8C160.96 263.58 160.15 268.39 157.29 268.9C139.758 270.956 122.122 271.991 104.47 272C93.88 272 82.95 269 80.92 259.56C79.885 254.117 79.7196 248.545 80.43 243.05Z" fill="#374151"/>
<path d="M432 192H448M64 192H80M78 211C78 211 124.35 199 256 199C387.65 199 434 211 434 211" stroke="#374151" stroke-width="32" stroke-linecap="round" stroke-linejoin="round"/>
</svg>
