<svg xmlns="http://www.w3.org/2000/svg" xmlns:xlink="http://www.w3.org/1999/xlink" version="1.1" x="0px" y="0px" viewBox="0 0 100 125" style="enable-background:new 0 0 100 100;" xml:space="preserve"><g><path d="M66.7,24H44c-5.1,5.1-7.9,7.9-13,13v7.5c0,2.2,1.8,4.5,4,4.5h31c3,0,5-2.9,5-6V28.5C71,26,69.2,24,66.7,24z M67,43   c0,0.8-0.2,2-1,2H35v-6.3L45.7,28h21.1c0.3,0,0.3,0.2,0.3,0.5V43z"/><path d="M65,54h-8c-1.1,0-2,0.9-2,2c0,1.1,0.9,2,2,2h8c1.1,0,2-0.9,2-2C67,54.9,66.1,54,65,54z"/><path d="M70.1,15H44.3c-1.6,0-3.1,0.6-4.3,1.8L21.7,35.2c-1.1,1.1-1.7,2.6-1.7,4.2v18.2c0,2.8,1.9,5.2,4.6,5.8   c8.3,1.8,14.9,8.4,16.7,16.8c0.6,2.7,3,4.7,5.8,4.7h22.9c5.5,0,9.9-4.5,9.9-10V25C80,19.5,75.6,15,70.1,15z M76,75   c0,3.3-2.7,6-5.9,6H47.2c-0.9,0-1.7-0.6-1.9-1.5c-2.1-9.9-9.9-17.8-19.7-19.9c-0.9-0.2-1.5-1-1.5-1.9V39.5c0-0.5,0.2-1,0.6-1.4   l18.3-18.5c0.4-0.4,0.9-0.6,1.4-0.6H70h0c3.3,0,6,2.7,6,6V75z"/></g><text x="0" y="115" fill="#000000" font-size="5px" font-weight="bold" font-family="'Helvetica Neue', Helvetica, Arial-Unicode, Arial, Sans-serif">Created by Mundo</text><text x="0" y="120" fill="#000000" font-size="5px" font-weight="bold" font-family="'Helvetica Neue', Helvetica, Arial-Unicode, Arial, Sans-serif">from the Noun Project</text></svg>