<svg xmlns="http://www.w3.org/2000/svg" xmlns:xlink="http://www.w3.org/1999/xlink" version="1.1" width="595.2756" height="184.252" viewBox="0 0 595.2756 184.252">
<g id="layer_1" data-name="Vrstva 1">
<path transform="matrix(1,0,0,-1,0,184.252)" d="M595.2756 184.252H0V0H595.2756Z" fill="#ffffff" fill-rule="evenodd"/>
<path transform="matrix(1,0,0,-1,0,184.252)" d="M0 184.252H595.2756V.0003H185.0482C193.4396 16.473 198.2211 35.405 198.2211 55.5466 198.2211 119.1356 150.6195 170.7041 91.9216 170.7041H0Z" fill="#e6e7e8" fill-rule="evenodd"/>
<path transform="matrix(1,0,0,-1,0,184.252)" d="M67.6755 73.2835 97.1694 95.2452 126.8697 73.2835C126.0471 69.7402 118.8774 62.5122 116.1782 60.2527 112.8396 57.4577 105.2283 53.5484 99.182 53.5484H95.3631C83.3159 53.5484 71.4674 64.7685 67.6755 73.2835ZM63.6729 82.279 61.7686 90.2982 61.9668 90.3093 97.3083 116.4424 132.7003 90.3138 130.991 82.4562 130.7633 82.3229 97.2456 107.2338ZM60.9922 101.8324C60.9922 123.4125 76.0759 146.2839 97.2726 146.2839 109.4397 146.2839 118.1126 139.0776 123.3782 132.0508 126.5516 127.8162 128.3876 124.2054 130.4127 118.7994 131.3152 116.39 131.9803 113.5018 132.5203 110.7595 133.0569 108.0349 132.9866 104.2719 133.5529 101.8324L97.308 128.7045ZM55.8366 100.2994V99.9162C55.8366 73.2569 72.3115 48.3752 98.6094 48.3752H99.182C110.4185 48.3752 122.0978 57.5388 127.0392 64.1081 132.3408 71.1564 138.5175 84.2258 138.5175 96.4675V103.3651C138.5175 115.0676 132.518 128.6609 127.2869 135.2066 123.7073 139.6854 120.8959 142.4177 116.1743 145.7067 113.2075 147.7732 105.0568 151.2658 100.137 151.2658H94.4084C88.6686 151.2658 81.5828 147.7063 77.9233 145.3898 73.3326 142.4837 69.7983 138.6456 66.5821 134.3523 60.7677 126.5902 55.8366 113.8598 55.8366 100.2994" fill="#231f20" fill-rule="evenodd"/>
<path transform="matrix(1,0,0,-1,0,184.252)" d="M128.3973 32.2807C128.6158 31.8665 128.73 31.3226 129.352 31.3226H134.1258C134.5711 31.3226 135.0805 31.8339 135.0805 32.2807V32.4723C135.0805 32.919 134.5711 33.4304 134.1258 33.4304H129.352C128.7337 33.4304 128.6501 32.7603 128.3973 32.2807" fill="#231f20" fill-rule="evenodd"/>
<path transform="matrix(1,0,0,-1,0,184.252)" d="M136.2263 32.6639C136.2263 32.0182 136.5636 31.3226 137.181 31.3226H141.9548C142.3998 31.3226 142.9095 31.8339 142.9095 32.2807V32.4723C142.9095 32.919 142.3998 33.4304 141.9548 33.4304H137.181C136.7847 33.4304 136.2263 32.8697 136.2263 32.6639" fill="#231f20" fill-rule="evenodd"/>
<path transform="matrix(1,0,0,-1,0,184.252)" d="M51.2538 15.8029H54.5V29.7899H51.2538Z" fill="#231f20" fill-rule="evenodd"/>
<path transform="matrix(1,0,0,-1,0,184.252)" d="M148.2559 15.8029H151.5022V26.9158H159.3312C162.0952 26.9158 163.5318 25.3318 163.5318 22.5091V15.8029H166.587V24.2334C166.587 28.1032 162.8776 29.7899 158.7583 29.7899H148.2559Z" fill="#231f20" fill-rule="evenodd"/>
<path transform="matrix(1,0,0,-1,0,184.252)" d="M80.0872 15.8029H83.1424V26.9158H94.5995C95.2676 26.9158 97.619 23.5871 92.8894 23.65 90.4728 23.682 88.043 23.6585 85.6247 23.6585V23.0839C85.6247 22.3773 90.6778 19.0902 91.5202 18.4612 95.0207 15.8477 93.7074 15.8029 99.5641 15.8029L99.6834 15.9752 92.308 21.1677C95.8711 21.1677 99.182 21.6479 99.182 25.1915 99.182 28.3238 96.7725 29.7899 93.6445 29.7899H80.0872Z" fill="#231f20" fill-rule="evenodd"/>
<path transform="matrix(1,0,0,-1,0,184.252)" d="M57.7463 27.4907C57.7463 27.049 57.8789 26.9158 58.3191 26.9158H65.575V16.3777C65.575 15.9361 65.7079 15.8029 66.1479 15.8029H68.8212V26.9158H76.6502V29.7899H57.7463Z" fill="#231f20" fill-rule="evenodd"/>
<path transform="matrix(1,0,0,-1,0,184.252)" d="M27.7671 23.4669V21.7426C27.7671 18.8062 31.6375 15.8029 34.8324 15.8029H46.4803V18.6769H35.4053C33.3437 18.6769 31.2043 20.1042 31.2043 22.1258V22.5091C31.2043 25.2865 32.8734 26.9158 35.5961 26.9158H46.4803V29.215C46.4803 29.6566 46.3473 29.7899 45.9074 29.7899H37.8876C32.8476 29.7899 27.7671 28.186 27.7671 23.4669" fill="#231f20" fill-rule="evenodd"/>
<path transform="matrix(1,0,0,-1,0,184.252)" d="M127.2515 15.8029H144.055V18.4853H130.4977V21.551H142.5274V23.6585C142.5274 24.1002 142.3947 24.2334 141.9548 24.2334H130.4977V26.9158H144.055V29.7899H127.2515Z" fill="#231f20" fill-rule="evenodd"/>
<path transform="matrix(1,0,0,-1,0,184.252)" d="M106.0563 23.0839C106.0563 25.077 107.8889 27.1074 109.8751 27.1074H115.9855C117.968 27.1074 119.9957 25.2247 119.9957 23.6585V21.9342C119.9957 19.2532 116.814 18.2937 113.8853 18.2937H112.1666C108.792 18.2937 106.0563 19.2008 106.0563 22.5091ZM102.6193 24.0418V21.7426C102.6193 18.2534 106.6816 15.4196 110.448 15.4196H115.6037C119.9239 15.4196 123.4327 18.3668 123.4327 22.7007 123.4327 26.7999 120.1025 29.9815 116.1765 29.9815H109.6843C106.6484 29.9815 102.6193 26.7157 102.6193 24.0418" fill="#231f20" fill-rule="evenodd"/>
<path transform="matrix(1,0,0,-1,0,184.252)" d="M242.4436 111.1808 248.1661 109.3603C247.2874 106.151 245.8295 103.7696 243.7855 102.2094 241.7485 100.656 239.1528 99.8759 236.012 99.8759 232.1289 99.8759 228.9336 101.2102 226.4335 103.8722 223.933 106.541 222.6796 110.1883 222.6796 114.8077 222.6796 119.7006 223.9398 123.4984 226.4536 126.2083 228.9677 128.9115 232.272 130.2664 236.3732 130.2664 239.9499 130.2664 242.8591 129.2057 245.0937 127.0774 246.4288 125.8251 247.4237 124.0186 248.0913 121.6644L242.2389 120.2615C241.8985 121.7877 241.1762 122.9922 240.0724 123.8749 238.9759 124.7576 237.6405 125.1955 236.0735 125.1955 233.907 125.1955 232.1425 124.4154 230.7934 122.8484 229.4444 121.288 228.7701 118.7561 228.7701 115.2524 228.7701 111.5365 229.4311 108.8884 230.7665 107.3143 232.0948 105.7337 233.8251 104.9465 235.9508 104.9465 237.5246 104.9465 238.8736 105.4463 240.0043 106.452 241.1357 107.4512 241.9461 109.0321 242.4436 111.1808ZM253.3986 100.3754V129.5271H259.3052V105.3298H273.9937V100.3754ZM299.3851 129.7667H305.278V111.1601C305.278 108.7308 305.06 106.8559 304.6377 105.5489 304.0654 103.8379 303.0299 102.4625 301.5244 101.4293 300.0186 100.389 298.0361 99.8759 295.5764 99.8759 292.6882 99.8759 290.4673 100.6832 288.9068 102.312 287.3537 103.9337 286.5634 106.3154 286.5566 109.4562L292.1227 110.0996C292.1907 108.4161 292.4359 107.2253 292.8583 106.5274 293.4986 105.4735 294.4732 104.9465 295.7743 104.9465 297.0893 104.9465 298.0225 105.323 298.5673 106.0826 299.1127 106.8352 299.3851 108.4025 299.3851 110.7839ZM311.5256 129.7667H317.4321V113.8496C317.4321 111.3245 317.5072 109.6821 317.6504 108.9363 317.9024 107.7318 318.5087 106.7669 319.4555 106.0415 320.4094 105.3094 321.7107 104.9465 323.3594 104.9465 325.0355 104.9465 326.3026 105.2887 327.1541 105.98 328.0056 106.6643 328.5167 107.5127 328.6868 108.5119 328.864 109.518 328.9459 111.1808 328.9459 113.5074V129.7667H334.8524V114.3286C334.8524 110.7975 334.696 108.3067 334.3757 106.8491 334.0556 105.3913 333.4697 104.1664 332.6111 103.1604 331.7528 102.1615 330.6013 101.3607 329.1707 100.7654 327.7332 100.1701 325.853 99.8759 323.5365 99.8759 320.7433 99.8759 318.6244 100.1974 317.1801 100.8476 315.7359 101.4976 314.598 102.3395 313.7601 103.3727 312.9222 104.406 312.37 105.4942 312.1047 106.63 311.7163 108.3135 311.5256 110.7975 311.5256 114.0891ZM341.1408 100.3754V129.7667H346.8909L358.8678 110.1404V129.7667H364.3591V100.3754H358.4251L346.6321 119.543V100.3754ZM370.4224 100.3754V129.7667H376.3293V100.3754ZM380.7643 114.8896C380.7643 117.887 381.2071 120.3985 382.0997 122.4309 382.7673 123.9228 383.6733 125.2709 384.8247 126.4615 385.9761 127.6455 387.2364 128.5282 388.6058 129.1031 390.4316 129.8832 392.5301 130.2664 394.9146 130.2664 399.227 130.2664 402.6745 128.9251 405.2631 126.2356 407.8519 123.5531 409.1465 119.8168 409.1465 115.0333 409.1465 110.2842 407.8587 106.5753 405.2906 103.8929 402.7221 101.217 399.2885 99.8759 394.9963 99.8759 390.6431 99.8759 387.182 101.2102 384.6135 103.8722 382.045 106.541 380.7643 110.2158 380.7643 114.8896ZM386.8481 115.0883C386.8481 111.7624 387.618 109.2373 389.1438 107.5195 390.6768 105.802 392.6186 104.9465 394.9758 104.9465 397.3263 104.9465 399.261 105.7952 400.7735 107.5059 402.2793 109.2098 403.0353 111.7624 403.0353 115.1702 403.0353 118.5372 402.2997 121.0484 400.8351 122.7115 399.3633 124.3675 397.408 125.1955 394.9758 125.1955 392.5369 125.1955 390.5748 124.3539 389.0826 122.6772 387.5975 121.0005 386.8481 118.4754 386.8481 115.0883ZM413.7724 100.3754V129.7667H426.2128C429.34 129.7667 431.6085 129.4999 433.0256 128.973 434.4426 128.446 435.5804 127.5086 436.4317 126.1604 437.2835 124.8055 437.7059 123.2657 437.7059 121.5275 437.7059 119.3241 437.0587 117.4969 435.7712 116.06 434.4834 114.6297 432.5485 113.7195 429.9803 113.3501 431.261 112.5972 432.3169 111.776 433.148 110.8797 433.9794 109.9831 435.0966 108.3954 436.5068 106.1099L440.0836 100.3754H433.0188L428.747 106.7737C427.2279 109.0593 426.1921 110.4965 425.6337 111.0917 425.075 111.687 424.4822 112.091 423.8555 112.3166 423.2288 112.5357 422.2406 112.6451 420.8783 112.6451H419.686V100.3754ZM419.686 117.3396H424.0531C426.8871 117.3396 428.6585 117.4558 429.3669 117.6953 430.0688 117.9349 430.6207 118.3524 431.0223 118.9409 431.4178 119.5294 431.6221 120.2615 431.6221 121.1443 431.6221 122.1367 431.3563 122.9304 430.8316 123.5395 430.3074 124.1484 429.5645 124.5317 428.6038 124.6961 428.127 124.7576 426.6896 124.7919 424.2915 124.7919H419.686ZM481.0218 100.3754H474.5906L472.0357 107.0544H460.3382L457.9265 100.3754H451.6586L463.0564 129.7667H469.3039ZM470.1419 112.002 466.1084 122.91 462.1572 112.002ZM484.115 129.7667H490.0215V113.8496C490.0215 111.3245 490.0966 109.6821 490.2398 108.9363 490.4918 107.7318 491.0984 106.7669 492.0452 106.0415 492.999 105.3094 494.3001 104.9465 495.9488 104.9465 497.6249 104.9465 498.892 105.2887 499.7438 105.98 500.595 106.6643 501.1061 107.5127 501.2765 108.5119 501.4536 109.518 501.5356 111.1808 501.5356 113.5074V129.7667H507.4421V114.3286C507.4421 110.7975 507.2854 108.3067 506.965 106.8491 506.645 105.3913 506.0591 104.1664 505.2008 103.1604 504.3421 102.1615 503.191 101.3607 501.7601 100.7654 500.3229 100.1701 498.4424 99.8759 496.1262 99.8759 493.3327 99.8759 491.214 100.1974 489.7695 100.8476 488.3253 101.4976 487.1877 102.3395 486.3495 103.3727 485.5116 104.406 484.9597 105.4942 484.6941 106.63 484.3057 108.3135 484.115 110.7975 484.115 114.0891ZM520.257 100.3754V124.7919H511.5776V129.7667H534.8296V124.7919H526.1709V100.3754ZM537.4457 114.8896C537.4457 117.887 537.8885 120.3985 538.7811 122.4309 539.4487 123.9228 540.3549 125.2709 541.5063 126.4615 542.6578 127.6455 543.918 128.5282 545.2872 129.1031 547.1133 129.8832 549.2117 130.2664 551.596 130.2664 555.9083 130.2664 559.3558 128.9251 561.9444 126.2356 564.5336 123.5531 565.8279 119.8168 565.8279 115.0333 565.8279 110.2842 564.5404 106.5753 561.9719 103.8929 559.4034 101.217 555.9698 99.8759 551.6779 99.8759 547.3244 99.8759 543.8636 101.2102 541.2951 103.8722 538.7264 106.541 537.4457 110.2158 537.4457 114.8896ZM543.5297 115.0883C543.5297 111.7624 544.2996 109.2373 545.8255 107.5195 547.3585 105.802 549.2999 104.9465 551.6572 104.9465 554.0077 104.9465 555.9426 105.7952 557.4549 107.5059 558.9607 109.2098 559.7167 111.7624 559.7167 115.1702 559.7167 118.5372 558.9811 121.0484 557.5164 122.7115 556.0447 124.3675 554.0896 125.1955 551.6572 125.1955 549.2183 125.1955 547.2561 124.3539 545.7643 122.6772 544.2789 121.0005 543.5297 118.4754 543.5297 115.0883ZM223.7355 83.897H235.4329C237.7494 83.897 239.4799 83.8012 240.6178 83.6028 241.7553 83.4111 242.7704 83.0075 243.6698 82.3915 244.5693 81.7758 245.3117 80.9614 245.9112 79.935 246.5107 78.9154 246.8103 77.7657 246.8103 76.4997 246.8103 75.1241 246.4424 73.8581 245.7068 72.7087 244.9641 71.5589 243.9626 70.6966 242.7024 70.1218 244.4805 69.6016 245.8565 68.7121 246.8103 67.4597 247.771 66.2006 248.2481 64.7226 248.2481 63.0255 248.2481 61.691 247.9416 60.3907 247.3214 59.1248 246.7015 57.8656 245.8565 56.8528 244.787 56.1002 243.7174 55.3473 242.3959 54.8821 240.8221 54.7041 239.8411 54.6015 237.4631 54.5332 233.6958 54.5057H223.7355ZM229.6491 79.0041V72.2089H233.5187C235.8213 72.2089 237.2522 72.2432 237.8109 72.3115 238.8192 72.428 239.6163 72.777 240.1951 73.3586 240.7742 73.9403 241.0605 74.7068 241.0605 75.6578 241.0605 76.568 240.8153 77.307 240.3179 77.8751 239.8136 78.4431 239.0712 78.7853 238.0898 78.9015 237.5042 78.9701 235.8213 79.0041 233.0419 79.0041ZM229.6491 67.316V59.4601H235.1129C237.2454 59.4601 238.5944 59.5148 239.1667 59.6381 240.0454 59.7954 240.7609 60.1923 241.3125 60.8083 241.8644 61.431 242.1437 62.2658 242.1437 63.3061 242.1437 64.1889 241.9257 64.9346 241.5033 65.5506 241.0741 66.1666 240.461 66.6181 239.6571 66.8988 238.8532 67.1791 237.1022 67.316 234.4178 67.316ZM252.0428 69.0199C252.0428 72.0173 252.4856 74.5288 253.3782 76.5612 254.0458 78.0531 254.952 79.4013 256.1031 80.5918 257.2546 81.7758 258.5151 82.6586 259.8843 83.2334 261.7101 84.0135 263.8086 84.3968 266.1931 84.3968 270.5054 84.3968 273.9529 83.0554 276.5415 80.3659 279.1307 77.6835 280.425 73.9471 280.425 69.1637 280.425 64.4145 279.1375 60.7056 276.569 58.0232 274.0005 55.3473 270.5669 54.0062 266.275 54.0062 261.9215 54.0062 258.4604 55.3405 255.8923 58.0025 253.3235 60.6713 252.0428 64.3462 252.0428 69.0199ZM258.1268 69.2186C258.1268 65.8928 258.8967 63.3677 260.4226 61.6499 261.9556 59.9323 263.897 59.0769 266.2543 59.0769 268.6048 59.0769 270.5397 59.9255 272.052 61.6363 273.5578 63.3402 274.3138 65.8928 274.3138 69.3006 274.3138 72.6676 273.5782 75.1788 272.1135 76.8419 270.6418 78.4979 268.6867 79.3259 266.2543 79.3259 263.8154 79.3259 261.8532 78.4843 260.3614 76.8076 258.876 75.1309 258.1268 72.6058 258.1268 69.2186ZM283.5386 64.0655 289.2886 64.6336C289.6294 62.6902 290.3309 61.2666 291.3936 60.3567 292.4495 59.4533 293.8737 58.9949 295.6723 58.9949 297.5729 58.9949 299.0103 59.3986 299.971 60.213 300.9385 61.0203 301.422 61.9648 301.422 63.0459 301.422 63.7441 301.218 64.3326 300.8089 64.8184 300.407 65.3111 299.6986 65.7354 298.6835 66.0912 297.9952 66.3375 296.4146 66.7619 293.9553 67.3778 290.7876 68.1647 288.5664 69.1364 287.2922 70.2862 285.4939 71.9011 284.5947 73.872 284.5947 76.1984 284.5947 77.6971 285.0168 79.0931 285.8618 80.4002 286.7066 81.7004 287.9263 82.6926 289.5134 83.3771 291.1076 84.0546 293.0219 84.3968 295.2703 84.3968 298.9491 84.3968 301.7083 83.5892 303.5684 81.9743 305.4214 80.3523 306.3954 78.1968 306.491 75.4937L300.5844 75.2338C300.3324 76.746 299.787 77.834 298.9559 78.4911 298.1248 79.1546 296.8781 79.4832 295.2159 79.4832 293.4989 79.4832 292.1499 79.1342 291.1825 78.4225 290.5557 77.9709 290.2425 77.3617 290.2425 76.6023 290.2425 75.9042 290.5356 75.3089 291.1212 74.8162 291.8639 74.1866 293.6761 73.5296 296.551 72.8521 299.4262 72.1678 301.5516 71.4631 302.9278 70.7377 304.304 70.0055 305.3803 69.0131 306.1638 67.7472 306.9408 66.4812 307.3292 64.921 307.3292 63.0666 307.3292 61.3831 306.8657 59.8022 305.9325 58.3379 304.9988 56.8667 303.6841 55.7717 301.981 55.0599 300.2774 54.3416 298.152 53.9855 295.611 53.9855 291.9115 53.9855 289.0706 54.841 287.0881 56.5586 285.1055 58.2763 283.9201 60.7808 283.5386 64.0655ZM312.3771 54.5057V83.897H318.2842V70.8471L330.2201 83.897H338.1639L327.1473 72.4484 338.7634 54.5057H331.1195L323.0802 68.3016 318.2842 63.3881V54.5057ZM340.6235 69.0199C340.6235 72.0173 341.0663 74.5288 341.9589 76.5612 342.6262 78.0531 343.5324 79.4013 344.6838 80.5918 345.8353 81.7758 347.0956 82.6586 348.4647 83.2334 350.2908 84.0135 352.3893 84.3968 354.7735 84.3968 359.0861 84.3968 362.5333 83.0554 365.1222 80.3659 367.7111 77.6835 369.0057 73.9471 369.0057 69.1637 369.0057 64.4145 367.7179 60.7056 365.1494 58.0232 362.5812 55.3473 359.1476 54.0062 354.8554 54.0062 350.502 54.0062 347.0411 55.3405 344.4727 58.0025 341.9039 60.6713 340.6235 64.3462 340.6235 69.0199ZM346.7072 69.2186C346.7072 65.8928 347.4771 63.3677 349.003 61.6499 350.536 59.9323 352.4774 59.0769 354.8347 59.0769 357.1852 59.0769 359.1201 59.9255 360.6324 61.6363 362.1385 63.3402 362.8945 65.8928 362.8945 69.3006 362.8945 72.6676 362.1586 75.1788 360.6939 76.8419 359.2222 78.4979 357.2671 79.3259 354.8347 79.3259 352.3961 79.3259 350.4336 78.4843 348.9418 76.8076 347.4564 75.1309 346.7072 72.6058 346.7072 69.2186ZM381.0779 54.5057 370.6203 83.897H377.0311L384.4298 62.1428 391.5969 83.897H397.8646L387.3866 54.5057ZM400.699 54.5057V83.897H406.6055V54.5057ZM430.9614 65.3111 436.684 63.4907C435.8052 60.2813 434.3474 57.8999 432.3033 56.3397 430.2663 54.7863 427.6706 54.0062 424.5299 54.0062 420.6467 54.0062 417.4517 55.3405 414.9513 58.0025 412.4509 60.6713 411.1974 64.3187 411.1974 68.938 411.1974 73.8309 412.4577 77.6288 414.9717 80.3387 417.4855 83.0418 420.7898 84.3968 424.8913 84.3968 428.468 84.3968 431.3769 83.336 433.6118 81.2078 434.9469 79.9554 435.9416 78.1489 436.6094 75.7947L430.757 74.3919C430.4163 75.918 429.694 77.1225 428.5905 78.0052 427.4938 78.8879 426.1584 79.3259 424.5914 79.3259 422.4249 79.3259 420.6603 78.5458 419.3113 76.9788 417.9626 75.4183 417.2879 72.8864 417.2879 69.3828 417.2879 65.6668 417.9489 63.0187 419.2843 61.4446 420.6127 59.864 422.3432 59.0769 424.4686 59.0769 426.0427 59.0769 427.3914 59.5766 428.5225 60.5823 429.6535 61.5815 430.4639 63.1624 430.9614 65.3111ZM441.76 54.5057V83.897H463.4518V78.9222H447.6665V72.4073H462.3548V67.4597H447.6665V59.4601H464.0105V54.5057ZM478.3652 60.5823 483.9925 61.4446C484.2306 60.3499 484.7145 59.5148 485.4504 58.947 486.1794 58.379 487.2013 58.0915 488.5228 58.0915 489.9739 58.0915 491.0641 58.3583 491.7932 58.8991 492.2904 59.2685 492.5358 59.775 492.5358 60.3978 492.5358 60.8287 492.3995 61.1847 492.1336 61.4653 491.8544 61.7321 491.2277 61.9784 490.2602 62.2043 485.7367 63.2032 482.8683 64.1203 481.6556 64.9483 479.9795 66.098 479.1416 67.6993 479.1416 69.7453 479.1416 71.5861 479.8638 73.1395 481.3149 74.3919 482.766 75.651 485.0144 76.2806 488.0597 76.2806 490.962 76.2806 493.1218 75.8015 494.532 74.8573 495.942 73.906 496.9094 72.5031 497.4409 70.6419L492.1543 69.6634C491.9292 70.4914 491.5001 71.1278 490.8665 71.5657 490.233 72.0105 489.3335 72.2296 488.162 72.2296 486.6834 72.2296 485.6272 72.0241 484.9872 71.6068 484.5645 71.3126 484.3536 70.9294 484.3536 70.4639 484.3536 70.0603 484.5376 69.7249 484.9123 69.4443 485.4163 69.0678 487.1602 68.5412 490.1511 67.8566 493.1354 67.1791 495.22 66.3443 496.4054 65.3522 497.5773 64.3462 498.1632 62.9501 498.1632 61.164 498.1632 59.2138 497.3522 57.5303 495.7243 56.1274 494.1026 54.7248 491.7044 54.0266 488.5228 54.0266 485.6343 54.0266 483.3519 54.6151 481.6624 55.7923 479.9795 56.9625 478.8828 58.5638 478.3652 60.5823ZM503.0751 54.5057V60.1376H508.682V54.5057ZM519.8006 54.5057H514.1937V75.7947H519.3986V72.7702C520.291 74.2003 521.0949 75.1448 521.8036 75.5963 522.5187 76.0479 523.3226 76.2806 524.2289 76.2806 525.5096 76.2806 526.7361 75.9249 527.9213 75.2131L526.1839 70.3066C525.244 70.9157 524.3652 71.2236 523.5545 71.2236 522.7639 71.2236 522.1032 71.0113 521.5584 70.5733 521.0065 70.1425 520.5838 69.3553 520.2706 68.2194 519.9571 67.0833 519.8006 64.7019 519.8006 61.0821ZM528.0849 54.5057V60.1376H533.6918V54.5057ZM538.1405 65.4548C538.1405 67.3228 538.6037 69.1364 539.5167 70.8883 540.4363 72.6333 541.7376 73.9746 543.4206 74.8916 545.1032 75.8154 546.9837 76.2806 549.0615 76.2806 552.2638 76.2806 554.8932 75.2338 556.9438 73.1395 558.9947 71.0456 560.0166 68.4043 560.0166 65.2085 560.0166 61.992 558.9811 59.3232 556.9166 57.202 554.8456 55.0806 552.2431 54.0266 549.1023 54.0266 547.1541 54.0266 545.3076 54.4646 543.5433 55.3473 541.7785 56.2303 540.4363 57.5235 539.5167 59.2274 538.6037 60.9316 538.1405 63.0048 538.1405 65.4548ZM543.8906 65.1538C543.8906 63.0391 544.3877 61.4242 545.3895 60.302 546.3842 59.1795 547.6173 58.6185 549.0822 58.6185 550.5469 58.6185 551.7729 59.1795 552.761 60.302 553.7554 61.4242 554.2529 63.0527 554.2529 65.1949 554.2529 67.2749 553.7554 68.8833 552.761 70.0055 551.7729 71.1278 550.5469 71.6888 549.0822 71.6888 547.6173 71.6888 546.3842 71.1278 545.3895 70.0055 544.3877 68.8833 543.8906 67.2613 543.8906 65.1538ZM564.4108 54.5057V60.1376H570.0178V54.5057Z" fill="#ed1c24"/>
</g>
</svg>
