<?xml version="1.0" encoding="UTF-8" standalone="no"?>
<!-- Created with Inkscape (http://www.inkscape.org/) -->

<svg
   xmlns:dc="http://purl.org/dc/elements/1.1/"
   xmlns:cc="http://creativecommons.org/ns#"
   xmlns:rdf="http://www.w3.org/1999/02/22-rdf-syntax-ns#"
   xmlns:svg="http://www.w3.org/2000/svg"
   xmlns="http://www.w3.org/2000/svg"
   version="1.1"
   width="552.76001"
   height="198.4225"
   id="svg2"
   xml:space="preserve"><metadata
     id="metadata8"><rdf:RDF><cc:Work
         rdf:about=""><dc:format>image/svg+xml</dc:format><dc:type
           rdf:resource="http://purl.org/dc/dcmitype/StillImage" /><dc:title></dc:title></cc:Work></rdf:RDF></metadata><defs
     id="defs6"><clipPath
       id="clipPath28"><path
         d="m 0,158.738 442.208,0 L 442.208,0 0,0 0,158.738 z"
         id="path30" /></clipPath></defs><g
     transform="matrix(1.25,0,0,-1.25,0,198.4225)"
     id="g10"><g
       id="g3198"><g
         transform="translate(68.3818,122.0625)"
         id="g12"><path
           d="m 0,0 7.89,-4.587 0,-31.158 -15.77,0 0.03,31.179 L 0,0 z m 0.062,7.032 -13.876,-7.944 0,-40.817 27.627,0 0,40.817 -13.751,7.944 z"
           id="path14"
           style="fill:#d4272e;fill-opacity:1;fill-rule:nonzero;stroke:none" /></g><g
         transform="translate(44.0488,115.0405)"
         id="g16"><path
           d="m 0,0 -21.549,-12.449 0,-53.176 37.91,-21.875 0.089,39.393 15.799,0 0.029,-39.451 38.029,21.993 0,53.146 -21.697,12.45 -0.089,-67.197 6.018,3.468 0.029,53.324 9.633,-5.602 0,-46.062 -26.024,-15.028 -0.03,34.918 -27.655,-0.029 0.031,-34.889 -25.996,15.028 0,46.121 9.663,5.484 0.03,-53.234 5.899,-3.38 L 0,0 z"
           id="path18"
           style="fill:#d4272e;fill-opacity:1;fill-rule:nonzero;stroke:none" /></g><g
         transform="translate(178.1123,70.1104)"
         id="g20"><path
           d="m 0,0 -7.91,0 0,12.51 -25.106,0 0,-12.51 -7.91,0 0,32.414 7.91,0 0,-12.553 25.106,0 0,12.553 7.91,0 L 0,0 z"
           id="path22"
           style="fill:#d4272e;fill-opacity:1;fill-rule:nonzero;stroke:none" /></g><g
         clip-path="url(#clipPath28)"
         id="g26"><g
           transform="translate(195.7373,89.9717)"
           id="g32"><path
             d="m 0,0 18.4,0 c 1.604,0 2.859,0.423 3.762,1.269 0.902,0.844 1.483,2.069 1.74,3.674 l -27.556,0 0,-24.804 -7.91,0 0,32.414 43.076,0 0,-6.191 c 0,-8.197 -3.984,-12.711 -11.951,-13.542 l 12.337,-12.681 -9.543,0 L 9.845,-7.309 0,-7.309 0,0 z"
             id="path34"
             style="fill:#d4272e;fill-opacity:1;fill-rule:nonzero;stroke:none" /></g><g
           transform="translate(240.877,77.6338)"
           id="g36"><path
             d="m 0,0 24.246,0 c 1.747,0 2.622,0.816 2.622,2.45 0,1.863 -0.875,2.794 -2.622,2.794 l -18.701,0 0,6.879 18.701,0 c 1.747,0 2.622,0.924 2.622,2.772 0,1.59 -0.875,2.386 -2.622,2.386 L 0,17.281 0,0 z m -7.91,24.891 34.263,0 c 5.903,0 8.855,-2.738 8.855,-8.211 0,-2.236 -0.48,-3.992 -1.44,-5.267 -0.96,-1.275 -2.343,-2.085 -4.149,-2.429 1.777,-0.343 3.152,-1.203 4.127,-2.579 0.975,-1.376 1.462,-3.282 1.462,-5.717 0,-5.475 -2.952,-8.211 -8.855,-8.211 l -34.263,0 0,32.414 z"
             id="path38"
             style="fill:#d4272e;fill-opacity:1;fill-rule:nonzero;stroke:none" /></g><g
           transform="translate(315.8926,94.915)"
           id="g40"><path
             d="m 0,0 -14.272,0 c -4.815,0 -7.939,-0.516 -9.373,-1.547 -0.601,-0.488 -1.095,-1.04 -1.482,-1.655 -0.388,-0.617 -0.639,-1.254 -0.753,-1.913 L 0,-5.115 0,0 z m 7.91,-24.805 -7.91,0 0,12.553 -26.396,0 0,-12.553 -7.91,0 0,16.293 c 0,2.522 0.359,4.779 1.076,6.771 0.715,1.992 1.768,3.682 3.159,5.073 1.389,1.39 3.088,2.45 5.094,3.181 2.006,0.731 4.299,1.096 6.878,1.096 l 26.009,0 0,-32.414 z"
             id="path42"
             style="fill:#d4272e;fill-opacity:1;fill-rule:nonzero;stroke:none" /></g><g
           transform="translate(369.3281,94.915)"
           id="g44"><path
             d="m 0,0 -14.917,0 0,-24.805 -7.91,0 0,24.805 -5.439,0 c -3.425,0 -5.281,-1.648 -5.567,-4.943 l -7.437,0 c 0.688,8.368 5.445,12.552 14.273,12.552 L 0,7.609 0,0 z"
             id="path46"
             style="fill:#d4272e;fill-opacity:1;fill-rule:nonzero;stroke:none" /></g><g
           transform="translate(407.7178,94.915)"
           id="g48"><path
             d="m 0,0 -14.272,0 c -4.815,0 -7.939,-0.516 -9.372,-1.547 -0.602,-0.488 -1.096,-1.04 -1.483,-1.655 -0.387,-0.617 -0.639,-1.254 -0.752,-1.913 L 0,-5.115 0,0 z m 7.91,-24.805 -7.91,0 0,12.553 -26.396,0 0,-12.553 -7.91,0 0,16.293 c 0,2.522 0.359,4.779 1.076,6.771 0.715,1.992 1.769,3.682 3.159,5.073 1.39,1.39 3.088,2.45 5.094,3.181 2.006,0.731 4.299,1.096 6.878,1.096 l 26.009,0 0,-32.414 z"
             id="path50"
             style="fill:#d4272e;fill-opacity:1;fill-rule:nonzero;stroke:none" /></g><g
           transform="translate(236.6777,53.6211)"
           id="g52"><path
             d="m 0,0 c 0,-1.261 -0.449,-2.275 -1.346,-3.042 -0.858,-0.716 -1.931,-1.073 -3.218,-1.073 l -10.163,0 0,2.321 10.163,0 c 0.636,0 1.189,0.143 1.658,0.429 0.533,0.351 0.8,0.826 0.8,1.424 0,0.598 -0.274,1.059 -0.82,1.384 -0.455,0.274 -1.002,0.411 -1.638,0.411 l -6.281,0 c -1.157,0 -2.126,0.318 -2.906,0.955 C -14.584,3.498 -15,4.408 -15,5.54 c 0,1.118 0.416,2.022 1.249,2.711 0.78,0.637 1.749,0.956 2.906,0.956 l 10.045,0 0,-2.321 -10.045,0 c -0.442,0 -0.819,-0.124 -1.132,-0.371 -0.311,-0.247 -0.467,-0.578 -0.467,-0.994 0,-0.43 0.156,-0.761 0.467,-0.996 0.313,-0.234 0.69,-0.35 1.132,-0.35 l 6.281,0 c 1.287,0 2.36,-0.371 3.218,-1.112 C -0.449,2.282 0,1.262 0,0"
             id="path54"
             style="fill:#222222;fill-opacity:1;fill-rule:nonzero;stroke:none" /></g><g
           transform="translate(254.6025,60.5068)"
           id="g56"><path
             d="m 0,0 -5.247,0 0,-11.001 -2.302,0 0,11.001 -5.265,0 0,2.321 L 0,2.321 0,0 z"
             id="path58"
             style="fill:#222222;fill-opacity:1;fill-rule:nonzero;stroke:none" /></g><g
           transform="translate(274.8877,49.5059)"
           id="g60"><path
             d="m 0,0 -2.984,0.02 -2.244,3.725 -6.319,0 1.404,2.302 3.531,0 -2.322,3.842 -6.007,-9.869 -2.984,0 7.237,12.034 c 0.181,0.312 0.435,0.598 0.76,0.858 0.39,0.299 0.741,0.449 1.053,0.449 0.338,0 0.689,-0.143 1.054,-0.429 0.311,-0.247 0.565,-0.54 0.76,-0.878 L 0,0 z"
             id="path62"
             style="fill:#222222;fill-opacity:1;fill-rule:nonzero;stroke:none" /></g><g
           transform="translate(291.8369,62.8281)"
           id="g64"><path
             d="m 0,0 -7.606,-12.23 c -0.534,-0.872 -1.015,-1.307 -1.444,-1.307 -0.417,0 -0.89,0.435 -1.424,1.307 L -17.925,0 -14.94,0 -8.991,-9.89 -2.984,0 0,0 z"
             id="path66"
             style="fill:#222222;fill-opacity:1;fill-rule:nonzero;stroke:none" /></g><g
           transform="translate(307.6357,58.9072)"
           id="g68"><path
             d="m 0,0 c 0,0.559 -0.325,0.988 -0.975,1.287 -0.507,0.221 -1.086,0.332 -1.736,0.332 l -7.587,0 0,-8.68 7.587,0 c 0.637,0 1.203,0.098 1.697,0.292 0.676,0.287 1.014,0.697 1.014,1.23 0,0.546 -0.338,0.962 -1.014,1.248 -0.507,0.208 -1.073,0.312 -1.697,0.312 l -6.222,0 0,2.321 6.222,0 c 0.65,0 1.229,0.117 1.736,0.351 C -0.325,-1.008 0,-0.572 0,0 m 2.243,-5.52 c 0,-0.572 -0.142,-1.112 -0.429,-1.619 -0.858,-1.495 -2.484,-2.243 -4.876,-2.243 l -9.557,0 0,13.322 9.557,0 C -0.786,3.94 0.807,3.231 1.717,1.813 2.068,1.241 2.243,0.631 2.243,-0.02 2.243,-1.125 1.775,-2.055 0.839,-2.809 1.775,-3.537 2.243,-4.44 2.243,-5.52"
             id="path70"
             style="fill:#222222;fill-opacity:1;fill-rule:nonzero;stroke:none" /></g><g
           transform="translate(330.749,62.8281)"
           id="g72"><path
             d="m 0,0 -6.612,-8.914 0,-4.408 -2.302,0 0,4.447 L -15.701,0 -12.717,0 -7.704,-6.554 -3.004,0 0,0 z"
             id="path74"
             style="fill:#222222;fill-opacity:1;fill-rule:nonzero;stroke:none" /></g></g></g></g></svg>