<svg width="100%" height="100%" viewBox="0 0 36 35" fill="none" xmlns="http://www.w3.org/2000/svg">
<g clip-path="url(#clip0_5_27)">
<path d="M31.3547 2H4.64527C3.94394 2.00079 3.27157 2.27974 2.77566 2.77566C2.27974 3.27157 2.00079 3.94394 2 4.64527V31.3547C2.00079 32.0561 2.27974 32.7284 2.77566 33.2243C3.27157 33.7203 3.94394 33.9992 4.64527 34H31.3547C32.0561 33.9992 32.7284 33.7203 33.2243 33.2243C33.7203 32.7284 33.9992 32.0561 34 31.3547V4.64527C33.9992 3.94394 33.7203 3.27157 33.2243 2.77566C32.7284 2.27974 32.0561 2.00079 31.3547 2ZM32.2703 31.3547C32.2699 31.5974 32.1734 31.8301 32.0017 32.0017C31.8301 32.1734 31.5974 32.2699 31.3547 32.2703H4.64527C4.40256 32.2699 4.16988 32.1734 3.99826 32.0017C3.82663 31.8301 3.73007 31.5974 3.72973 31.3547V4.64527C3.73007 4.40256 3.82663 4.16988 3.99826 3.99826C4.16988 3.82663 4.40256 3.73007 4.64527 3.72973H31.3547C31.5974 3.73007 31.8301 3.82663 32.0017 3.99826C32.1734 4.16988 32.2699 4.40256 32.2703 4.64527V31.3547Z" fill="#22D3EE"/>
<path d="M6.32432 9.78378C6.43791 9.78392 6.55041 9.7616 6.65535 9.71812C6.76029 9.67464 6.8556 9.61085 6.93581 9.53041L9.53041 6.93581C9.69259 6.77363 9.7837 6.55367 9.7837 6.32431C9.7837 6.09495 9.69259 5.87499 9.53041 5.71281C9.36823 5.55063 9.14827 5.45952 8.91891 5.45952C8.68955 5.45952 8.46959 5.55063 8.30741 5.71281L5.71284 8.30743C5.59191 8.42838 5.50956 8.58247 5.4762 8.75022C5.44284 8.91797 5.45996 9.09185 5.52541 9.24987C5.59086 9.40789 5.70169 9.54295 5.8439 9.63798C5.9861 9.73302 6.15329 9.78376 6.32432 9.78378Z" fill="#22D3EE"/>
<path d="M13.8547 16.4493L16.4493 13.8547C16.6115 13.6925 16.7026 13.4726 16.7026 13.2432C16.7026 13.0139 16.6115 12.7939 16.4493 12.6317C16.2871 12.4696 16.0672 12.3784 15.8378 12.3784C15.6085 12.3784 15.3885 12.4696 15.2263 12.6317L12.6317 15.2263C12.4695 15.3885 12.3784 15.6085 12.3784 15.8378C12.3784 16.0672 12.4695 16.2871 12.6317 16.4493C12.7939 16.6115 13.0139 16.7026 13.2432 16.7026C13.4726 16.7026 13.6925 16.6115 13.8547 16.4493Z" fill="#22D3EE"/>
<path d="M6.32432 23.6216C6.43791 23.6218 6.55041 23.5994 6.65535 23.556C6.76029 23.5125 6.85561 23.4487 6.93581 23.3682L9.53041 20.7736C9.69259 20.6115 9.7837 20.3915 9.7837 20.1621C9.7837 19.9328 9.69259 19.7128 9.53041 19.5506C9.36823 19.3885 9.14827 19.2974 8.91891 19.2974C8.68955 19.2974 8.46959 19.3885 8.30741 19.5506L5.71284 22.1453C5.59192 22.2662 5.50957 22.4203 5.47621 22.5881C5.44285 22.7558 5.45998 22.9297 5.52543 23.0877C5.59088 23.2457 5.70171 23.3808 5.8439 23.4758C5.9861 23.5708 6.15329 23.6216 6.32432 23.6216Z" fill="#22D3EE"/>
<path d="M20.1622 23.6216C20.2758 23.6218 20.3883 23.5994 20.4932 23.556C20.5981 23.5125 20.6934 23.4487 20.7736 23.3682L23.3682 20.7736C23.5304 20.6115 23.6215 20.3915 23.6215 20.1621C23.6215 19.9328 23.5304 19.7128 23.3682 19.5506C23.2061 19.3885 22.9861 19.2974 22.7567 19.2974C22.5274 19.2974 22.3074 19.3885 22.1452 19.5506L19.5506 22.1452C19.4297 22.2662 19.3474 22.4203 19.314 22.588C19.2807 22.7558 19.2978 22.9297 19.3632 23.0877C19.4287 23.2457 19.5395 23.3807 19.6817 23.4758C19.8239 23.5708 19.9911 23.6216 20.1622 23.6216Z" fill="#22D3EE"/>
<path d="M13.2432 23.6216C13.3568 23.6218 13.4693 23.5994 13.5743 23.556C13.6792 23.5125 13.7745 23.4487 13.8547 23.3682L16.4493 20.7736C16.6115 20.6115 16.7026 20.3915 16.7026 20.1621C16.7026 19.9328 16.6115 19.7128 16.4493 19.5506C16.2871 19.3885 16.0672 19.2974 15.8378 19.2974C15.6085 19.2974 15.3885 19.3885 15.2263 19.5506L12.6317 22.1452C12.5108 22.2662 12.4285 22.4203 12.3951 22.588C12.3617 22.7558 12.3789 22.9297 12.4443 23.0877C12.5098 23.2457 12.6206 23.3807 12.7628 23.4758C12.905 23.5708 13.0722 23.6216 13.2432 23.6216Z" fill="#22D3EE"/>
<path d="M8.30743 26.4696L5.71284 29.0642C5.63254 29.1445 5.56884 29.2398 5.52538 29.3447C5.48192 29.4497 5.45955 29.5621 5.45955 29.6757C5.45955 29.7893 5.48192 29.9017 5.52538 30.0066C5.56884 30.1116 5.63254 30.2069 5.71284 30.2872C5.79314 30.3675 5.88848 30.4312 5.9934 30.4747C6.09832 30.5181 6.21077 30.5405 6.32434 30.5405C6.43791 30.5405 6.55036 30.5181 6.65528 30.4747C6.7602 30.4312 6.85554 30.3675 6.93584 30.2872L9.53044 27.6926C9.69262 27.5304 9.78373 27.3105 9.78373 27.0811C9.78373 26.8517 9.69262 26.6318 9.53044 26.4696C9.36826 26.3074 9.1483 26.2163 8.91894 26.2163C8.68958 26.2163 8.46961 26.3074 8.30743 26.4696Z" fill="#22D3EE"/>
<path d="M22.1453 26.4696L19.5507 29.0642C19.4704 29.1445 19.4067 29.2398 19.3632 29.3447C19.3198 29.4497 19.2974 29.5621 19.2974 29.6757C19.2974 29.7893 19.3198 29.9017 19.3632 30.0066C19.4067 30.1116 19.4704 30.2069 19.5507 30.2872C19.631 30.3675 19.7263 30.4312 19.8312 30.4747C19.9362 30.5181 20.0486 30.5405 20.1622 30.5405C20.2757 30.5405 20.3882 30.5181 20.4931 30.4747C20.598 30.4312 20.6934 30.3675 20.7737 30.2872L23.3683 27.6926C23.5304 27.5304 23.6216 27.3105 23.6216 27.0811C23.6216 26.8517 23.5304 26.6318 23.3683 26.4696C23.2061 26.3074 22.9861 26.2163 22.7568 26.2163C22.5274 26.2163 22.3074 26.3074 22.1453 26.4696Z" fill="#22D3EE"/>
<path d="M15.2263 26.4696L12.6318 29.0642C12.5515 29.1445 12.4878 29.2398 12.4443 29.3447C12.4008 29.4497 12.3785 29.5621 12.3785 29.6757C12.3785 29.7893 12.4008 29.9017 12.4443 30.0066C12.4878 30.1116 12.5515 30.2069 12.6318 30.2872C12.7121 30.3675 12.8074 30.4312 12.9123 30.4747C13.0172 30.5181 13.1297 30.5405 13.2433 30.5405C13.3568 30.5405 13.4693 30.5181 13.5742 30.4747C13.6791 30.4312 13.7745 30.3675 13.8548 30.2872L16.4493 27.6926C16.5297 27.6123 16.5934 27.517 16.6368 27.412C16.6803 27.3071 16.7026 27.1947 16.7026 27.0811C16.7026 26.9675 16.6803 26.8551 16.6368 26.7502C16.5934 26.6452 16.5297 26.5499 16.4493 26.4696C16.369 26.3893 16.2737 26.3256 16.1688 26.2821C16.0639 26.2387 15.9514 26.2163 15.8378 26.2163C15.7243 26.2163 15.6118 26.2387 15.5069 26.2821C15.402 26.3256 15.3067 26.3893 15.2263 26.4696Z" fill="#22D3EE"/>
<path d="M29.0642 19.5507L26.4696 22.1453C26.3074 22.3074 26.2163 22.5274 26.2163 22.7568C26.2163 22.9861 26.3074 23.2061 26.4696 23.3683C26.6318 23.5305 26.8517 23.6216 27.0811 23.6216C27.3104 23.6216 27.5304 23.5305 27.6926 23.3683L30.2872 20.7737C30.4494 20.6115 30.5405 20.3915 30.5405 20.1622C30.5405 19.9328 30.4494 19.7129 30.2872 19.5507C30.125 19.3885 29.905 19.2974 29.6757 19.2974C29.4463 19.2974 29.2264 19.3885 29.0642 19.5507Z" fill="#22D3EE"/>
<path d="M29.0642 26.4696L26.4696 29.0642C26.3893 29.1445 26.3256 29.2398 26.2821 29.3447C26.2387 29.4497 26.2163 29.5621 26.2163 29.6757C26.2163 29.7893 26.2387 29.9017 26.2821 30.0066C26.3256 30.1116 26.3893 30.2069 26.4696 30.2872C26.5499 30.3675 26.6452 30.4312 26.7502 30.4747C26.8551 30.5181 26.9675 30.5405 27.0811 30.5405C27.1947 30.5405 27.3071 30.5181 27.412 30.4747C27.517 30.4312 27.6123 30.3675 27.6926 30.2872L30.2872 27.6926C30.4494 27.5304 30.5405 27.3105 30.5405 27.0811C30.5405 26.8517 30.4494 26.6318 30.2872 26.4696C30.125 26.3074 29.905 26.2163 29.6757 26.2163C29.4463 26.2163 29.2264 26.3074 29.0642 26.4696Z" fill="#22D3EE"/>
<path d="M29.0642 12.6318L26.4696 15.2263C26.3074 15.3885 26.2163 15.6085 26.2163 15.8378C26.2163 16.0672 26.3074 16.2872 26.4696 16.4494C26.6318 16.6115 26.8517 16.7026 27.0811 16.7026C27.3104 16.7026 27.5304 16.6115 27.6926 16.4494L30.2872 13.8548C30.4494 13.6926 30.5405 13.4726 30.5405 13.2433C30.5405 13.0139 30.4494 12.7939 30.2872 12.6318C30.125 12.4696 29.905 12.3785 29.6757 12.3785C29.4463 12.3785 29.2264 12.4696 29.0642 12.6318Z" fill="#22D3EE"/>
<path d="M20.7736 16.4493L23.3682 13.8547C23.4485 13.7744 23.5122 13.6791 23.5557 13.5742C23.5992 13.4692 23.6215 13.3568 23.6215 13.2432C23.6215 13.1297 23.5992 13.0172 23.5557 12.9123C23.5122 12.8074 23.4485 12.712 23.3682 12.6317C23.2879 12.5514 23.1926 12.4877 23.0877 12.4443C22.9828 12.4008 22.8703 12.3784 22.7567 12.3784C22.6432 12.3784 22.5307 12.4008 22.4258 12.4443C22.3209 12.4877 22.2255 12.5514 22.1452 12.6317L19.5506 15.2263C19.4703 15.3066 19.4066 15.402 19.3632 15.5069C19.3197 15.6118 19.2974 15.7243 19.2974 15.8378C19.2974 15.9514 19.3197 16.0638 19.3632 16.1688C19.4066 16.2737 19.4703 16.369 19.5506 16.4493C19.631 16.5296 19.7263 16.5933 19.8312 16.6368C19.9361 16.6802 20.0486 16.7026 20.1621 16.7026C20.2757 16.7026 20.3882 16.6802 20.4931 16.6368C20.598 16.5933 20.6933 16.5296 20.7736 16.4493Z" fill="#22D3EE"/>
<path d="M20.1622 9.78378C20.2758 9.78392 20.3882 9.7616 20.4932 9.71812C20.5981 9.67464 20.6934 9.61085 20.7736 9.53041L23.3682 6.93581C23.5304 6.77363 23.6215 6.55367 23.6215 6.32431C23.6215 6.09495 23.5304 5.87499 23.3682 5.71281C23.2061 5.55063 22.9861 5.45952 22.7567 5.45952C22.5274 5.45952 22.3074 5.55063 22.1452 5.71281L19.5507 8.30743C19.4297 8.42838 19.3474 8.58247 19.314 8.75022C19.2807 8.91797 19.2978 9.09185 19.3633 9.24987C19.4287 9.40789 19.5395 9.54295 19.6817 9.63798C19.8239 9.73302 19.9911 9.78376 20.1622 9.78378Z" fill="#22D3EE"/>
<path d="M29.0642 5.71284L26.4696 8.30743C26.3893 8.38773 26.3256 8.48307 26.2821 8.58799C26.2387 8.69291 26.2163 8.80536 26.2163 8.91893C26.2163 9.0325 26.2387 9.14495 26.2821 9.24987C26.3256 9.35479 26.3893 9.45013 26.4696 9.53043C26.5499 9.61073 26.6452 9.67443 26.7502 9.71789C26.8551 9.76135 26.9675 9.78372 27.0811 9.78372C27.1947 9.78372 27.3071 9.76135 27.412 9.71789C27.517 9.67443 27.6123 9.61073 27.6926 9.53043L30.2872 6.93583C30.3675 6.85553 30.4312 6.76019 30.4746 6.65527C30.5181 6.55035 30.5405 6.4379 30.5405 6.32433C30.5405 6.21076 30.5181 6.09831 30.4746 5.99339C30.4312 5.88847 30.3675 5.79313 30.2872 5.71283C30.2069 5.63253 30.1115 5.56883 30.0066 5.52537C29.9017 5.48191 29.7892 5.45954 29.6757 5.45954C29.5621 5.45954 29.4497 5.48191 29.3447 5.52537C29.2398 5.56883 29.1445 5.63254 29.0642 5.71284Z" fill="#22D3EE"/>
<path d="M13.2432 9.78378C13.3568 9.78392 13.4693 9.7616 13.5743 9.71812C13.6792 9.67464 13.7745 9.61085 13.8547 9.53041L16.4493 6.93581C16.6115 6.77363 16.7026 6.55367 16.7026 6.32431C16.7026 6.09495 16.6115 5.87499 16.4493 5.71281C16.2871 5.55063 16.0672 5.45952 15.8378 5.45952C15.6085 5.45952 15.3885 5.55063 15.2263 5.71281L12.6318 8.30743C12.5108 8.42838 12.4285 8.58247 12.3951 8.75022C12.3618 8.91797 12.3789 9.09185 12.4443 9.24987C12.5098 9.40789 12.6206 9.54295 12.7628 9.63798C12.905 9.73302 13.0722 9.78376 13.2432 9.78378Z" fill="#22D3EE"/>
<path d="M9.1723 9.1723C9.09197 9.25259 9.02824 9.34792 8.98476 9.45284C8.94128 9.55776 8.9189 9.67022 8.9189 9.7838C8.9189 9.89738 8.94128 10.0098 8.98476 10.1148C9.02824 10.2197 9.09197 10.315 9.1723 10.3953L11.7669 12.9899C11.9291 13.1521 12.149 13.2432 12.3784 13.2432C12.6077 13.2432 12.8277 13.1521 12.9899 12.9899C13.1521 12.8277 13.2432 12.6077 13.2432 12.3784C13.2432 12.149 13.1521 11.9291 12.9899 11.7669L10.3953 9.1723C10.315 9.09197 10.2197 9.02825 10.1147 8.98477C10.0098 8.9413 9.89736 8.91892 9.78378 8.91892C9.67021 8.91892 9.55775 8.9413 9.45283 8.98477C9.34791 9.02825 9.25259 9.09197 9.1723 9.1723Z" fill="#22D3EE"/>
<path d="M19.2973 20.1622C19.4683 20.1621 19.6355 20.1114 19.7777 20.0164C19.9199 19.9213 20.0307 19.7863 20.0962 19.6282C20.1616 19.4702 20.1788 19.2964 20.1454 19.1286C20.112 18.9609 20.0297 18.8068 19.9088 18.6858L17.3142 16.0912C17.152 15.929 16.932 15.8379 16.7027 15.8379C16.4733 15.8379 16.2534 15.929 16.0912 16.0912C15.929 16.2534 15.8379 16.4734 15.8379 16.7027C15.8379 16.9321 15.929 17.152 16.0912 17.3142L18.6858 19.9088C18.766 19.9892 18.8613 20.053 18.9663 20.0965C19.0712 20.14 19.1837 20.1623 19.2973 20.1622Z" fill="#22D3EE"/>
<path d="M26.2162 20.1622C26.3873 20.1621 26.5544 20.1114 26.6966 20.0164C26.8388 19.9213 26.9497 19.7863 27.0151 19.6282C27.0806 19.4702 27.0977 19.2964 27.0643 19.1286C27.031 18.9609 26.9486 18.8068 26.8277 18.6858L24.2331 16.0912C24.0709 15.929 23.851 15.8379 23.6216 15.8379C23.3923 15.8379 23.1723 15.929 23.0101 16.0912C22.8479 16.2534 22.7568 16.4734 22.7568 16.7027C22.7568 16.9321 22.8479 17.152 23.0101 17.3142L25.6047 19.9088C25.6849 19.9892 25.7802 20.053 25.8852 20.0965C25.9901 20.14 26.1026 20.1623 26.2162 20.1622Z" fill="#22D3EE"/>
<path d="M26.8277 26.8277C26.908 26.7474 26.9718 26.6521 27.0152 26.5472C27.0587 26.4422 27.0811 26.3298 27.0811 26.2162C27.0811 26.1026 27.0587 25.9902 27.0152 25.8852C26.9718 25.7803 26.908 25.685 26.8277 25.6047L24.2331 23.0101C24.1528 22.9298 24.0575 22.8661 23.9526 22.8226C23.8476 22.7792 23.7352 22.7568 23.6216 22.7568C23.508 22.7568 23.3956 22.7792 23.2907 22.8226C23.1857 22.8661 23.0904 22.9298 23.0101 23.0101C22.9298 23.0904 22.8661 23.1857 22.8226 23.2907C22.7792 23.3956 22.7568 23.508 22.7568 23.6216C22.7568 23.7352 22.7792 23.8476 22.8226 23.9526C22.8661 24.0575 22.9298 24.1528 23.0101 24.2331L25.6047 26.8277C25.685 26.908 25.7803 26.9718 25.8852 27.0152C25.9902 27.0587 26.1026 27.0811 26.2162 27.0811C26.3298 27.0811 26.4422 27.0587 26.5472 27.0152C26.6521 26.9718 26.7474 26.908 26.8277 26.8277Z" fill="#22D3EE"/>
<path d="M16.0912 9.1723C16.0109 9.25259 15.9472 9.34792 15.9037 9.45284C15.8602 9.55776 15.8378 9.67022 15.8378 9.7838C15.8378 9.89738 15.8602 10.0098 15.9037 10.1148C15.9472 10.2197 16.0109 10.315 16.0912 10.3953L18.6858 12.9899C18.848 13.1521 19.068 13.2432 19.2973 13.2432C19.5267 13.2432 19.7466 13.1521 19.9088 12.9899C20.071 12.8277 20.1621 12.6077 20.1621 12.3784C20.1621 12.149 20.071 11.9291 19.9088 11.7669L17.3142 9.1723C17.2339 9.09197 17.1386 9.02825 17.0337 8.98477C16.9287 8.9413 16.8163 8.91892 16.7027 8.91892C16.5891 8.91892 16.4767 8.9413 16.3718 8.98477C16.2668 9.02825 16.1715 9.09197 16.0912 9.1723Z" fill="#22D3EE"/>
<path d="M26.8277 12.9899C26.908 12.9096 26.9718 12.8142 27.0152 12.7093C27.0587 12.6044 27.0811 12.4919 27.0811 12.3784C27.0811 12.2648 27.0587 12.1523 27.0152 12.0474C26.9718 11.9425 26.908 11.8471 26.8277 11.7669L24.2331 9.1723C24.0709 9.01012 23.851 8.91901 23.6216 8.91901C23.3923 8.91901 23.1723 9.01012 23.0101 9.1723C22.8479 9.33448 22.7568 9.55444 22.7568 9.7838C22.7568 10.0132 22.8479 10.2331 23.0101 10.3953L25.6047 12.9899C25.685 13.0702 25.7803 13.1339 25.8852 13.1774C25.9902 13.2209 26.1026 13.2433 26.2162 13.2433C26.3298 13.2433 26.4422 13.2209 26.5472 13.1774C26.6521 13.1339 26.7474 13.0702 26.8277 12.9899Z" fill="#22D3EE"/>
<path d="M9.1723 16.0912C9.09197 16.1715 9.02824 16.2668 8.98476 16.3718C8.94128 16.4767 8.9189 16.5891 8.9189 16.7027C8.9189 16.8163 8.94128 16.9288 8.98476 17.0337C9.02824 17.1386 9.09197 17.2339 9.1723 17.3142L11.7669 19.9088C11.9291 20.071 12.149 20.1621 12.3784 20.1621C12.6077 20.1621 12.8277 20.071 12.9899 19.9088C13.1521 19.7466 13.2432 19.5267 13.2432 19.2973C13.2432 19.068 13.1521 18.848 12.9899 18.6858L10.3953 16.0912C10.315 16.0109 10.2197 15.9472 10.1148 15.9037C10.0098 15.8602 9.89737 15.8378 9.7838 15.8378C9.67022 15.8378 9.55776 15.8602 9.45284 15.9037C9.34791 15.9472 9.25259 16.0109 9.1723 16.0912Z" fill="#22D3EE"/>
<path d="M19.9088 26.8277C19.9891 26.7474 20.0528 26.6521 20.0963 26.5472C20.1398 26.4422 20.1622 26.3298 20.1622 26.2162C20.1622 26.1026 20.1398 25.9902 20.0963 25.8852C20.0528 25.7803 19.9891 25.685 19.9088 25.6047L17.3142 23.0101C17.2339 22.9298 17.1386 22.8661 17.0336 22.8226C16.9287 22.7792 16.8163 22.7568 16.7027 22.7568C16.5891 22.7568 16.4767 22.7792 16.3717 22.8226C16.2668 22.8661 16.1715 22.9298 16.0912 23.0101C16.0109 23.0904 15.9472 23.1857 15.9037 23.2907C15.8603 23.3956 15.8379 23.508 15.8379 23.6216C15.8379 23.7352 15.8603 23.8476 15.9037 23.9526C15.9472 24.0575 16.0109 24.1528 16.0912 24.2331L18.6858 26.8277C18.7661 26.908 18.8614 26.9718 18.9663 27.0152C19.0712 27.0587 19.1837 27.0811 19.2973 27.0811C19.4109 27.0811 19.5233 27.0587 19.6282 27.0152C19.7332 26.9718 19.8285 26.908 19.9088 26.8277Z" fill="#22D3EE"/>
<path d="M12.9899 26.8277C13.0702 26.7474 13.1339 26.6521 13.1774 26.5472C13.2209 26.4422 13.2433 26.3298 13.2433 26.2162C13.2433 26.1026 13.2209 25.9902 13.1774 25.8852C13.1339 25.7803 13.0702 25.685 12.9899 25.6047L10.3953 23.0101C10.2331 22.8479 10.0131 22.7568 9.78377 22.7568C9.55441 22.7568 9.33445 22.8479 9.17227 23.0101C9.01009 23.1723 8.91898 23.3923 8.91898 23.6216C8.91898 23.851 9.01009 24.0709 9.17227 24.2331L11.7669 26.8277C11.8471 26.908 11.9425 26.9718 12.0474 27.0152C12.1523 27.0587 12.2648 27.0811 12.3784 27.0811C12.4919 27.0811 12.6044 27.0587 12.7093 27.0152C12.8142 26.9718 12.9096 26.908 12.9899 26.8277Z" fill="#22D3EE"/>
<path d="M6.32432 16.7027C6.43791 16.7028 6.55041 16.6805 6.65535 16.637C6.76029 16.5936 6.85561 16.5298 6.93581 16.4493L9.53041 13.8547C9.69259 13.6925 9.7837 13.4726 9.7837 13.2432C9.7837 13.0139 9.69259 12.7939 9.53041 12.6317C9.36823 12.4696 9.14827 12.3784 8.91891 12.3784C8.68955 12.3784 8.46959 12.4696 8.30741 12.6317L5.71284 15.2263C5.59192 15.3473 5.50957 15.5014 5.47621 15.6691C5.44285 15.8369 5.45998 16.0108 5.52543 16.1688C5.59088 16.3268 5.70171 16.4619 5.8439 16.5569C5.9861 16.6519 6.15329 16.7027 6.32432 16.7027Z" fill="#22D3EE"/>
</g>
<defs>
<clipPath id="clip0_5_27">
<rect width="36" height="45" fill="white"/>
</clipPath>
</defs>
</svg>
