<svg id="Vrstva_1" data-name="Vrstva 1" xmlns="http://www.w3.org/2000/svg" viewBox="0 0 606.77 400.22"><defs><style>.cls-1{fill:none;}.cls-2{fill:#1d1d1b;}</style></defs><title>LDSeating_Black</title><rect class="cls-1" x="99.98" y="99.97" width="406.81" height="199.96"/><path class="cls-2" d="M163.17,175H106.48V105h18.4v55.79h38.29Z"/><path class="cls-2" d="M206.56,130c11.2,0,23.39,2,31.49,9.8s9.3,18.2,9.3,24.9c0,13.6-5,21.49-9.3,25.69-9.4,9.2-23.59,9.6-33.19,9.6h-30.8V130Zm-14.1,56h10.6c4.8,0,12.8-.2,18.29-4.8,3.5-2.89,6.6-8.19,6.6-16.29,0-8.5-3.3-13.6-6.2-16.1-5.29-4.6-12.49-4.8-17.59-4.8h-11.7Z"/><path class="cls-2" d="M119.18,252.24v.4a8.74,8.74,0,0,0,2.7,6.7c3.6,3.5,9.9,3.8,13.49,3.8,5.3,0,8.1-.6,10-1.6a8.23,8.23,0,0,0,4.6-7c0-1.6-.7-4.3-4.9-6a65.69,65.69,0,0,0-9.7-2.3l-10.09-1.6c-7.6-1.2-16.5-2.6-21-7.6-1.6-1.8-3.9-5.2-3.9-11.2,0-8.09,3.3-13.89,9.6-17.89,7-4.4,15.7-5,22.9-5,12.69,0,19.69,1.9,24.39,4.7,8.3,4.9,9.6,11.7,9.4,17h-18.6a7.37,7.37,0,0,0-4.2-6.39c-3.1-1.7-8.8-1.9-11.2-1.9-3.39,0-7.19.5-9.59,1.9a7.06,7.06,0,0,0-3.5,6.09c0,3.2,2.7,4.5,5,5.3,2,.7,4.6,1.3,12,2.5l8,1.3c6.2,1,13.1,2.3,17.8,5.8,5.9,4.4,7.1,10.4,7.1,15.3,0,8.5-3.8,13.8-8.2,17-3.6,2.6-10.3,5.4-24.7,5.4-11.09,0-23.79-.7-30.89-8.19-5.1-5.3-5.7-12-5.7-16.1v-.4Z"/><path class="cls-2" d="M236.65,258.34a18.66,18.66,0,0,1-11,15.79c-4.79,2.1-10.89,2.7-19.09,2.7-11.5,0-20.2-1-26.7-7.49-5.8-5.8-7-12.7-7-19,0-5.2.9-13.7,7.59-20.2,7-6.8,16.7-7.9,24.7-7.9s18.4,1.3,25.29,8.2c6.3,6.3,6.9,14.5,6.9,20.6v1.8H190.86v.3c0,4.4,1.6,7.4,3.3,9.1,3,3,7.8,3.4,11.2,3.4,2.6,0,6.6-.2,9.1-1.4a8,8,0,0,0,4.5-5.9Zm-17.39-14.5a10.77,10.77,0,0,0-3.6-7.8c-3-2.7-7.1-3-10.4-3-3.6,0-6.9.4-9.9,2.8a11.15,11.15,0,0,0-4.2,8Z"/><path class="cls-2" d="M305.33,224.14h10.8V209.05h17.6v15.09h11.8v10.8h-11.8v22.2c0,1.9,0,4.3,1.4,5.8.3.3,1.7,1.7,5.4,1.7a16.91,16.91,0,0,0,5.2-.8v11a38.15,38.15,0,0,1-12,1.6c-3.6,0-10-.2-13.9-3.9-3.6-3.39-3.7-7.89-3.7-11v-26.6h-10.8Z"/><path class="cls-2" d="M351.92,204.25h17.6v11.8h-17.6Zm17.6,19.89v50.79h-17.6V224.14Z"/><path class="cls-2" d="M397,224.14v6.2a23.52,23.52,0,0,1,7.1-5.6,25.31,25.31,0,0,1,11.3-2.3c9.6,0,14.6,2.8,15.9,3.7,6.59,4.3,7.39,11.3,7.39,17.4v31.39H421.11V247.44c0-4.1-.4-8.3-3-10.8-1.3-1.3-3.6-2.4-7.1-2.4a12.18,12.18,0,0,0-9.2,3.6c-2.6,2.8-4.1,7.8-4.1,13.8v23.29H380.12V224.14Z"/><path class="cls-2" d="M466.1,278a5.35,5.35,0,0,0,3.3,4.5,19.11,19.11,0,0,0,7.19,1.2c1.6,0,6.6-.1,9.5-2.8s3.1-7.1,3.1-9.6v-3.79h-.4a14.94,14.94,0,0,1-5.9,4.69c-2.3,1-5.8,1.7-11.69,1.7-7.2,0-13.7-1-19.5-6.39-5.5-5.2-6.8-11.4-6.8-17.7,0-10.2,3.5-16.4,7.2-20.2,5.9-5.9,13.5-7.1,19.8-7.1,5.39,0,8.89.9,11.29,2a15.73,15.73,0,0,1,6.5,5.5h.5v-5.9h16.6v44.6c0,3.49-.2,13.29-6.2,19.29-5.3,5.3-14.2,6.5-25.29,6.5-12.3,0-17.4-2.5-19.1-3.4-6.2-3.4-7.6-8.7-7.7-13.1Zm.7-18.39c3,3.2,7.1,3.7,10,3.7,3.09,0,6.59-.6,9.29-3.4s3.8-7.7,3.8-11.2c0-3.8-1.2-8.6-3.8-11.4a13.37,13.37,0,0,0-9.79-3.8,11.76,11.76,0,0,0-8.8,3.5c-2.3,2.3-4.4,6.2-4.4,12C463.1,253.34,464.4,257.14,466.8,259.64Z"/><path class="cls-2" d="M300.74,242.84c0-4.2-.1-9.5-4.3-13.9-5.7-6-17-6.7-24.1-6.7-9.1,0-17.39.8-23.09,6.4a16.25,16.25,0,0,0-4.9,11.9h17.8A7.11,7.11,0,0,1,265,235c2.4-1.7,6.4-1.8,7.6-1.8a16.23,16.23,0,0,1,7,1.4,5.44,5.44,0,0,1,3.2,5,4.79,4.79,0,0,1-1.2,3.3c-1.5,1.6-4.6,1.8-9.3,2.2l-8,.7c-5.3.5-13.8,1.1-18.6,5.7-2.8,2.7-3.8,6.2-3.8,10,0,6.6,3.2,10.19,5.9,12.09,4.3,2.9,10.8,3.2,15.8,3.2a39.35,39.35,0,0,0,12.09-1.5,15.69,15.69,0,0,0,7.9-5.39h.4l1.1,5h16.4a59.7,59.7,0,0,1-.8-9.49Zm-17.8,9.5c0,5.4-1.5,8.5-3.6,10.6-3.1,3.1-6.7,3.5-9.9,3.5-2.1,0-4.8-.1-6.69-1.6a5.45,5.45,0,0,1-2.1-4.3,5,5,0,0,1,2.4-4.3c1.69-1.1,4.19-1.5,7.09-1.8l3.7-.4c5-.5,7.1-.8,9.1-2.5Z"/><rect class="cls-1" x="100.04" y="99.97" width="406.75" height="199.96"/></svg>