<svg width="100%" height="100%" viewBox="0 0 21 22" fill="none" xmlns="http://www.w3.org/2000/svg">
<path d="M17.25 12C17.6642 12 18 11.6642 18 11.25C18 10.8358 17.6642 10.5 17.25 10.5C16.8358 10.5 16.5 10.8358 16.5 11.25C16.5 11.6642 16.8358 12 17.25 12Z" fill="#22D3EE"/>
<path d="M20.25 13.5C20.6642 13.5 21 13.1642 21 12.75C21 12.3358 20.6642 12 20.25 12C19.8358 12 19.5 12.3358 19.5 12.75C19.5 13.1642 19.8358 13.5 20.25 13.5Z" fill="#22D3EE"/>
<path d="M20.25 10.5C20.6642 10.5 21 10.1642 21 9.75C21 9.33579 20.6642 9 20.25 9C19.8358 9 19.5 9.33579 19.5 9.75C19.5 10.1642 19.8358 10.5 20.25 10.5Z" fill="#22D3EE"/>
<path fill-rule="evenodd" clip-rule="evenodd" d="M13.323 8.263L14.823 9.763C15.507 10.446 15.507 11.554 14.823 12.237L13.323 13.737C12.995 14.066 12.55 14.25 12.086 14.25H8.076L6.881 18.731C6.862 18.804 6.877 18.882 6.921 18.943L7.405 19.602C7.705 20.012 7.75 20.556 7.52 21.01C7.29 21.464 6.825 21.75 6.316 21.75H3.302C2.758 21.75 2.245 21.497 1.914 21.066C1.583 20.635 1.471 20.074 1.611 19.549L3.024 14.25H2C1.033 14.25 0.25 13.466 0.25 12.5V9.5C0.25 9.036 0.434 8.591 0.763 8.263C1.091 7.934 1.536 7.75 2 7.75H12.086C12.55 7.75 12.995 7.934 13.323 8.263ZM6.02 20.25L5.712 19.83C5.398 19.402 5.296 18.856 5.432 18.344L6.775 13.307C6.863 12.978 7.16 12.75 7.5 12.75H12.086C12.152 12.75 12.216 12.724 12.263 12.677L13.763 11.177C13.86 11.079 13.86 10.921 13.763 10.823L12.263 9.323C12.216 9.276 12.152 9.25 12.086 9.25H2C1.934 9.25 1.87 9.276 1.823 9.323C1.776 9.37 1.75 9.434 1.75 9.5V12.5C1.75 12.638 1.862 12.75 2 12.75H4C4.233 12.75 4.453 12.858 4.595 13.043C4.737 13.228 4.785 13.468 4.725 13.693L3.06 19.936C3.04 20.011 3.056 20.091 3.103 20.152C3.151 20.214 3.224 20.25 3.302 20.25H6.02Z" fill="#22D3EE"/>
<path fill-rule="evenodd" clip-rule="evenodd" d="M11.75 2V6.5C11.75 7.032 11.508 7.534 11.093 7.867L10.218 8.567C9.737 8.952 8.997 9.169 8.25 9.169C7.503 9.169 6.763 8.952 6.282 8.567L5.407 7.867C4.992 7.534 4.75 7.032 4.75 6.5V2C4.75 1.033 5.534 0.25 6.5 0.25H10C10.966 0.25 11.75 1.033 11.75 2ZM10.25 2C10.25 1.862 10.138 1.75 10 1.75H6.5C6.362 1.75 6.25 1.862 6.25 2V6.5C6.25 6.576 6.285 6.648 6.344 6.695L7.219 7.395C7.469 7.595 7.863 7.669 8.25 7.669C8.637 7.669 9.031 7.595 9.281 7.395L10.156 6.695C10.215 6.648 10.25 6.576 10.25 6.5V2Z" fill="#22D3EE"/>
<path fill-rule="evenodd" clip-rule="evenodd" d="M11 2.75C11.414 2.75 11.75 3.086 11.75 3.5C11.75 3.914 11.414 4.25 11 4.25H9C8.586 4.25 8.25 3.914 8.25 3.5C8.25 3.086 8.586 2.75 9 2.75H11Z" fill="#22D3EE"/>
<path fill-rule="evenodd" clip-rule="evenodd" d="M6.914 13.969C6.656 13.645 6.708 13.173 7.031 12.914C7.355 12.656 7.827 12.708 8.086 13.031L10.086 15.531C10.344 15.855 10.292 16.327 9.969 16.586C9.645 16.844 9.173 16.792 8.914 16.469L6.914 13.969Z" fill="#22D3EE"/>
</svg>
