<?xml version="1.0" encoding="utf-8"?>
<!-- Generator: Adobe Illustrator 19.0.0, SVG Export Plug-In . SVG Version: 6.00 Build 0)  -->
<svg version="1.1" id="Layer_1" xmlns="http://www.w3.org/2000/svg" xmlns:xlink="http://www.w3.org/1999/xlink" x="0px" y="0px"
	 viewBox="0 0 7459.1 1931.5" style="enable-background:new 0 0 7459.1 1931.5;" xml:space="preserve">
<style type="text/css">
	.st0{clip-path:url(#SVGID_2_);fill-rule:evenodd;clip-rule:evenodd;fill:#E3000F;}
	.st1{clip-path:url(#SVGID_2_);fill-rule:evenodd;clip-rule:evenodd;fill:#FFFFFF;}
	.st2{clip-path:url(#SVGID_2_);fill:#E3000F;}
	.st3{clip-path:url(#SVGID_2_);}
	.st4{fill:none;stroke:#000000;stroke-width:0.3;stroke-miterlimit:10;}
</style>
<g>
	<defs>
		<rect id="SVGID_1_" x="-9" y="79.5" width="7389" height="1861"/>
	</defs>
	<clipPath id="SVGID_2_">
		<use xlink:href="#SVGID_1_"  style="overflow:visible;"/>
	</clipPath>
	<polygon class="st0" points="1436.8,453.1 1348.9,453.1 1348.9,541.1 1436.9,541.1 	"/>
	<path class="st0" d="M1011.1,1374.7l-162.4-162.5l0,0l-162.5,162.5H463.7c-56,0-101.9-45.5-102.5-101.4l0-608.6
		c0.1-56.3,46.2-102.4,102.5-102.4h222.4l162.5,162.5l0,0l162.5-162.5h162.5l0,162.5H1336v547.4c0,56.4-46.1,102.5-102.5,102.5
		H1011.1z"/>
	<polygon class="st0" points="1258,370.7 1123.7,370.7 1123.7,504.9 1258,504.9 	"/>
	<polygon class="st1" points="1011.1,887.3 1011.1,1212.2 1173.6,1212.2 1173.6,724.8 1011.1,724.8 848.6,887.3 848.6,887.3 
		686.1,724.8 523.7,724.8 523.7,1212.2 686.1,1212.2 686.1,887.3 848.6,1049.8 848.6,1049.8 	"/>
	<path class="st0" d="M1243.5,562.8c46.5,4.5,84.1,40.4,91.3,86.1v15.3l-101.4,0V562.8L1243.5,562.8z"/>
	<path class="st2" d="M1583.7,876.4h127.3c-0.2,22.9,4.1,37.7,13,44.3c6.4,4.4,14.5,6.9,24.5,7.7c10,0.8,41.5,1.4,94.5,1.8
		c55.6-0.2,88.9-0.6,100.1-1.2c11.1-0.6,20-2.3,26.4-5.3c9.7-4.3,14.6-15.9,14.6-34.8c0-13.7-3.5-22.9-10.3-27.5
		c-6.9-4.6-20.8-7.1-41.9-7.6c-16.2,0-50.6-1.4-103.1-4c-53.7-2.8-88.7-4.3-104.9-4.7c-31.6-1.2-55.9-4.4-72.8-9.7
		c-16.9-5.3-30.2-13.9-39.7-25.8c-16.2-19.9-24.3-52.9-24.3-99.3c0-52,9.3-88.7,27.8-110.1c14.1-16.6,35.8-27.3,65.1-31.9
		c29.4-4.6,88.8-6.9,178.6-6.9c63.5,0,108,2,133.7,5.8c39.6,5.9,66.8,17.6,81.6,35.2c14.8,17.7,22.1,47.5,22.1,89.3
		c0,3.8,0,11,0,21.6h-127.5c-0.4-12.9-1.4-21.6-3-26.4c-1.5-4.7-4.6-8.5-9.3-11.5c-5.7-3.6-15.8-5.9-30.1-6.9
		c-14.2-1-44.7-1.5-91.1-1.5c-55.8,0-89.9,1.8-102.1,5.5c-12.2,3.8-18.3,14-18.3,31c0,16.1,6.2,26,18.3,29.7
		c10.1,2.9,56.6,5.6,139.3,8.4c69.7,2.2,116.3,4.8,139.9,7.9c23.5,3,42.2,8.7,56.1,17.4c15.8,10.1,27,23.9,33.5,41.7
		c6.6,17.6,9.8,42.9,9.8,76.1c0,43.4-5.5,75.6-16.4,96.8c-8.3,15.5-19.6,27.2-34.3,34.8c-14.7,7.6-35.3,12.8-61.8,15.5
		c-28.5,2.6-81.5,4-159.1,4c-64.9,0-112.9-1.8-143.9-5.4c-31-3.6-54.3-10-69.9-19.2c-16.2-10-27.4-23-33.7-39.2
		c-6.2-16.2-9.3-40.9-9.3-74L1583.7,876.4z"/>
	<polygon class="st2" points="2132.3,568.4 2654.9,568.4 2654.9,685.8 2462.5,685.8 2462.5,1028.9 2324.6,1028.9 2324.6,685.8 
		2132.3,685.8 	"/>
	<path class="st2" d="M3011.6,850.1l-83.2-174.7h-26.2L2819,850.1H3011.6z M3094.7,1028.9l-37-78h-285.4l-37,78H2585l229-460.5
		h204.2l225.8,460.5H3094.7z"/>
	<polygon class="st2" points="3154.5,568.4 3299,568.4 3456.5,913.6 3481.1,913.6 3637,568.4 3780.6,568.4 3570,1028.9 
		3367.9,1028.9 	"/>
	<polygon class="st2" points="3802.5,568.4 4280.3,568.4 4280.3,676.8 3932,676.8 3932,743.1 4262.9,743.1 4262.9,843.9 3932,843.9 
		3932,918.5 4282.9,918.5 4282.9,1028.9 3802.5,1028.9 	"/>
	<path class="st2" d="M4449.1,918.5h185.9c38.4-0.2,61.3-0.6,68.4-1c7.2-0.5,13.2-1.7,18-3.7c11.3-4.8,17.1-16.6,17.1-35.3
		c0-19.4-6.5-30.8-19.5-34.2c-4.6-1.4-32.7-2.2-84-2.4h-185.9V918.5z M4449.1,750h185.3c40.6,0,64.8-1.7,72.5-5.1
		c10.3-4.3,15.4-15.3,15.4-33c0-18.2-6.2-29.1-18.6-32.7c-4.9-1.4-28-2.2-69.4-2.4h-185.3V750z M4324.2,1028.9V568.4h309.9
		c65.9,0.2,105.1,0.8,117.5,1.7c28.3,1.7,49,7.1,62.3,16.1c12.8,8.6,22.1,20.8,27.6,36.6c5.6,15.9,8.4,37.6,8.4,65.4
		c0,33-4.2,57.3-12.7,72.8c-8.5,15.5-23.6,26.6-45.3,33.4c19.1,3.6,33.3,8.7,42.6,15.5c21,15.1,31.6,46.7,31.6,95.2
		c0,37.5-5.5,65.4-16.4,83.3c-7.4,12.2-17.4,21.1-30.1,26.8c-12.6,5.8-30.4,9.6-53.4,11.3c-14.9,1.2-58.7,2-131.1,2.4H4324.2z"/>
	<polygon class="st2" points="4911.9,568.4 5142.4,568.4 5368.6,912.3 5382.2,912.3 5379,568.4 5512.8,568.4 5512.8,1028.9 
		5284.1,1028.9 5057.1,685.1 5042.8,685.1 5045.7,1028.9 4911.9,1028.9 	"/>
	<rect x="5573" y="568.4" class="st2" width="137.9" height="460.5"/>
	<polygon class="st2" points="5771.6,568.4 6002.1,568.4 6228.3,912.3 6241.9,912.3 6238.7,568.4 6372.5,568.4 6372.5,1028.9 
		6143.8,1028.9 5916.7,685.1 5902.5,685.1 5905.4,1028.9 5771.6,1028.9 	"/>
	<polygon class="st2" points="6389.1,568.4 6562.1,568.4 6702.7,753.1 6837.5,568.4 7008.9,568.4 6772.7,866.1 6772.7,1028.9 
		6636.7,1028.9 6636.7,866.1 	"/>
	<polygon class="st3" points="2885.1,1226.2 2972.3,1226.2 3149.7,1497.9 3324.1,1226.2 3411.7,1226.2 3411.7,1546.7 3368.1,1546.7 
		3368.1,1266.1 3349.9,1266.1 3167.5,1546.7 3132.2,1546.7 2947.9,1266.1 2928.7,1266.1 2928.7,1546.7 2885.1,1546.7 	"/>
	<path class="st3" d="M4008.4,1441.5l-101.7-177.8h-17.5L3786,1441.5H4008.4z M4068,1546.7l-38.7-67.7h-264.4l-39,67.7h-49.4
		l185.4-320.4h69.7l184.8,320.4H4068z"/>
	<polygon class="st3" points="4381.1,1226.2 4424.7,1226.2 4424.7,1509.2 4682.6,1509.2 4682.6,1546.7 4381.1,1546.7 	"/>
	<path class="st3" d="M5004.4,1115l33.8,33.5l-69.5,59.4l-23.3-22.6L5004.4,1115z M4952.6,1226.2h43.6v320.4h-43.6V1226.2z"/>
	<polygon class="st3" points="5290.2,1226.2 5333.8,1226.2 5333.8,1364.1 5390.6,1364.1 5602.5,1226.2 5678.9,1226.2 5435.8,1382.6 
		5691.5,1546.7 5614.5,1546.7 5390.6,1401.6 5333.8,1401.6 5333.8,1546.7 5290.2,1546.7 	"/>
</g>
<line class="st4" x1="-21" y1="1931.5" x2="-45" y2="1931.5"/>
<line class="st4" x1="0" y1="1952.5" x2="0" y2="1976.5"/>
<line class="st4" x1="-21" y1="88.5" x2="-45" y2="88.5"/>
<line class="st4" x1="0" y1="67.5" x2="0" y2="43.5"/>
<line class="st4" x1="7392" y1="88.5" x2="7416" y2="88.5"/>
<line class="st4" x1="7371" y1="67.5" x2="7371" y2="43.5"/>
<line class="st4" x1="7392" y1="1931.5" x2="7416" y2="1931.5"/>
<line class="st4" x1="7371" y1="1952.5" x2="7371" y2="1976.5"/>
</svg>
